%TF.GenerationSoftware,KiCad,Pcbnew,7.0.11+dfsg-1build4*%
%TF.CreationDate,2025-01-11T22:11:33-06:00*%
%TF.ProjectId,MCTheremin,4d435468-6572-4656-9d69-6e2e6b696361,rev?*%
%TF.SameCoordinates,Original*%
%TF.FileFunction,Drillmap*%
%TF.FilePolarity,Positive*%
%FSLAX45Y45*%
G04 Gerber Fmt 4.5, Leading zero omitted, Abs format (unit mm)*
G04 Created by KiCad (PCBNEW 7.0.11+dfsg-1build4) date 2025-01-11 22:11:33*
%MOMM*%
%LPD*%
G01*
G04 APERTURE LIST*
%ADD10C,0.150000*%
%ADD11C,0.200000*%
%ADD12C,0.180000*%
G04 APERTURE END LIST*
D10*
X5000000Y-15000000D02*
X5000000Y-5000000D01*
X15000000Y-15000000D02*
X5000000Y-15000000D01*
X5000000Y-5000000D02*
X15000000Y-5000000D01*
X15000000Y-5000000D02*
X15000000Y-15000000D01*
D11*
D10*
X9737500Y-7919300D02*
X9887500Y-8069300D01*
X9887500Y-7919300D02*
X9737500Y-8069300D01*
X10222500Y-7919300D02*
X10372500Y-8069300D01*
X10372500Y-7919300D02*
X10222500Y-8069300D01*
D12*
X9872500Y-7691300D02*
G75*
G03*
X9692500Y-7691300I-90000J0D01*
G01*
X9692500Y-7691300D02*
G75*
G03*
X9872500Y-7691300I90000J0D01*
G01*
X10417500Y-7691300D02*
G75*
G03*
X10237500Y-7691300I-90000J0D01*
G01*
X10237500Y-7691300D02*
G75*
G03*
X10417500Y-7691300I90000J0D01*
G01*
D11*
X5253277Y-15318984D02*
X5253277Y-15118984D01*
X5253277Y-15118984D02*
X5300896Y-15118984D01*
X5300896Y-15118984D02*
X5329467Y-15128508D01*
X5329467Y-15128508D02*
X5348515Y-15147555D01*
X5348515Y-15147555D02*
X5358039Y-15166603D01*
X5358039Y-15166603D02*
X5367563Y-15204698D01*
X5367563Y-15204698D02*
X5367563Y-15233269D01*
X5367563Y-15233269D02*
X5358039Y-15271365D01*
X5358039Y-15271365D02*
X5348515Y-15290412D01*
X5348515Y-15290412D02*
X5329467Y-15309460D01*
X5329467Y-15309460D02*
X5300896Y-15318984D01*
X5300896Y-15318984D02*
X5253277Y-15318984D01*
X5453277Y-15318984D02*
X5453277Y-15185650D01*
X5453277Y-15223746D02*
X5462801Y-15204698D01*
X5462801Y-15204698D02*
X5472324Y-15195174D01*
X5472324Y-15195174D02*
X5491372Y-15185650D01*
X5491372Y-15185650D02*
X5510420Y-15185650D01*
X5577086Y-15318984D02*
X5577086Y-15185650D01*
X5577086Y-15118984D02*
X5567563Y-15128508D01*
X5567563Y-15128508D02*
X5577086Y-15138031D01*
X5577086Y-15138031D02*
X5586610Y-15128508D01*
X5586610Y-15128508D02*
X5577086Y-15118984D01*
X5577086Y-15118984D02*
X5577086Y-15138031D01*
X5700896Y-15318984D02*
X5681848Y-15309460D01*
X5681848Y-15309460D02*
X5672324Y-15290412D01*
X5672324Y-15290412D02*
X5672324Y-15118984D01*
X5805658Y-15318984D02*
X5786610Y-15309460D01*
X5786610Y-15309460D02*
X5777086Y-15290412D01*
X5777086Y-15290412D02*
X5777086Y-15118984D01*
X6034229Y-15318984D02*
X6034229Y-15118984D01*
X6034229Y-15118984D02*
X6100896Y-15261841D01*
X6100896Y-15261841D02*
X6167562Y-15118984D01*
X6167562Y-15118984D02*
X6167562Y-15318984D01*
X6348515Y-15318984D02*
X6348515Y-15214222D01*
X6348515Y-15214222D02*
X6338991Y-15195174D01*
X6338991Y-15195174D02*
X6319943Y-15185650D01*
X6319943Y-15185650D02*
X6281848Y-15185650D01*
X6281848Y-15185650D02*
X6262801Y-15195174D01*
X6348515Y-15309460D02*
X6329467Y-15318984D01*
X6329467Y-15318984D02*
X6281848Y-15318984D01*
X6281848Y-15318984D02*
X6262801Y-15309460D01*
X6262801Y-15309460D02*
X6253277Y-15290412D01*
X6253277Y-15290412D02*
X6253277Y-15271365D01*
X6253277Y-15271365D02*
X6262801Y-15252317D01*
X6262801Y-15252317D02*
X6281848Y-15242793D01*
X6281848Y-15242793D02*
X6329467Y-15242793D01*
X6329467Y-15242793D02*
X6348515Y-15233269D01*
X6443753Y-15185650D02*
X6443753Y-15385650D01*
X6443753Y-15195174D02*
X6462801Y-15185650D01*
X6462801Y-15185650D02*
X6500896Y-15185650D01*
X6500896Y-15185650D02*
X6519943Y-15195174D01*
X6519943Y-15195174D02*
X6529467Y-15204698D01*
X6529467Y-15204698D02*
X6538991Y-15223746D01*
X6538991Y-15223746D02*
X6538991Y-15280888D01*
X6538991Y-15280888D02*
X6529467Y-15299936D01*
X6529467Y-15299936D02*
X6519943Y-15309460D01*
X6519943Y-15309460D02*
X6500896Y-15318984D01*
X6500896Y-15318984D02*
X6462801Y-15318984D01*
X6462801Y-15318984D02*
X6443753Y-15309460D01*
X6624705Y-15299936D02*
X6634229Y-15309460D01*
X6634229Y-15309460D02*
X6624705Y-15318984D01*
X6624705Y-15318984D02*
X6615182Y-15309460D01*
X6615182Y-15309460D02*
X6624705Y-15299936D01*
X6624705Y-15299936D02*
X6624705Y-15318984D01*
X6624705Y-15195174D02*
X6634229Y-15204698D01*
X6634229Y-15204698D02*
X6624705Y-15214222D01*
X6624705Y-15214222D02*
X6615182Y-15204698D01*
X6615182Y-15204698D02*
X6624705Y-15195174D01*
X6624705Y-15195174D02*
X6624705Y-15214222D01*
D10*
X4842500Y-15572500D02*
X4992500Y-15722500D01*
X4992500Y-15572500D02*
X4842500Y-15722500D01*
D11*
X5358039Y-15738984D02*
X5243753Y-15738984D01*
X5300896Y-15738984D02*
X5300896Y-15538984D01*
X5300896Y-15538984D02*
X5281848Y-15567555D01*
X5281848Y-15567555D02*
X5262801Y-15586603D01*
X5262801Y-15586603D02*
X5243753Y-15596127D01*
X5443753Y-15719936D02*
X5453277Y-15729460D01*
X5453277Y-15729460D02*
X5443753Y-15738984D01*
X5443753Y-15738984D02*
X5434229Y-15729460D01*
X5434229Y-15729460D02*
X5443753Y-15719936D01*
X5443753Y-15719936D02*
X5443753Y-15738984D01*
X5634229Y-15538984D02*
X5538991Y-15538984D01*
X5538991Y-15538984D02*
X5529467Y-15634222D01*
X5529467Y-15634222D02*
X5538991Y-15624698D01*
X5538991Y-15624698D02*
X5558039Y-15615174D01*
X5558039Y-15615174D02*
X5605658Y-15615174D01*
X5605658Y-15615174D02*
X5624705Y-15624698D01*
X5624705Y-15624698D02*
X5634229Y-15634222D01*
X5634229Y-15634222D02*
X5643753Y-15653269D01*
X5643753Y-15653269D02*
X5643753Y-15700888D01*
X5643753Y-15700888D02*
X5634229Y-15719936D01*
X5634229Y-15719936D02*
X5624705Y-15729460D01*
X5624705Y-15729460D02*
X5605658Y-15738984D01*
X5605658Y-15738984D02*
X5558039Y-15738984D01*
X5558039Y-15738984D02*
X5538991Y-15729460D01*
X5538991Y-15729460D02*
X5529467Y-15719936D01*
X5767562Y-15538984D02*
X5786610Y-15538984D01*
X5786610Y-15538984D02*
X5805658Y-15548508D01*
X5805658Y-15548508D02*
X5815182Y-15558031D01*
X5815182Y-15558031D02*
X5824705Y-15577079D01*
X5824705Y-15577079D02*
X5834229Y-15615174D01*
X5834229Y-15615174D02*
X5834229Y-15662793D01*
X5834229Y-15662793D02*
X5824705Y-15700888D01*
X5824705Y-15700888D02*
X5815182Y-15719936D01*
X5815182Y-15719936D02*
X5805658Y-15729460D01*
X5805658Y-15729460D02*
X5786610Y-15738984D01*
X5786610Y-15738984D02*
X5767562Y-15738984D01*
X5767562Y-15738984D02*
X5748515Y-15729460D01*
X5748515Y-15729460D02*
X5738991Y-15719936D01*
X5738991Y-15719936D02*
X5729467Y-15700888D01*
X5729467Y-15700888D02*
X5719943Y-15662793D01*
X5719943Y-15662793D02*
X5719943Y-15615174D01*
X5719943Y-15615174D02*
X5729467Y-15577079D01*
X5729467Y-15577079D02*
X5738991Y-15558031D01*
X5738991Y-15558031D02*
X5748515Y-15548508D01*
X5748515Y-15548508D02*
X5767562Y-15538984D01*
X5958039Y-15538984D02*
X5977086Y-15538984D01*
X5977086Y-15538984D02*
X5996134Y-15548508D01*
X5996134Y-15548508D02*
X6005658Y-15558031D01*
X6005658Y-15558031D02*
X6015182Y-15577079D01*
X6015182Y-15577079D02*
X6024705Y-15615174D01*
X6024705Y-15615174D02*
X6024705Y-15662793D01*
X6024705Y-15662793D02*
X6015182Y-15700888D01*
X6015182Y-15700888D02*
X6005658Y-15719936D01*
X6005658Y-15719936D02*
X5996134Y-15729460D01*
X5996134Y-15729460D02*
X5977086Y-15738984D01*
X5977086Y-15738984D02*
X5958039Y-15738984D01*
X5958039Y-15738984D02*
X5938991Y-15729460D01*
X5938991Y-15729460D02*
X5929467Y-15719936D01*
X5929467Y-15719936D02*
X5919943Y-15700888D01*
X5919943Y-15700888D02*
X5910420Y-15662793D01*
X5910420Y-15662793D02*
X5910420Y-15615174D01*
X5910420Y-15615174D02*
X5919943Y-15577079D01*
X5919943Y-15577079D02*
X5929467Y-15558031D01*
X5929467Y-15558031D02*
X5938991Y-15548508D01*
X5938991Y-15548508D02*
X5958039Y-15538984D01*
X6110420Y-15738984D02*
X6110420Y-15605650D01*
X6110420Y-15624698D02*
X6119943Y-15615174D01*
X6119943Y-15615174D02*
X6138991Y-15605650D01*
X6138991Y-15605650D02*
X6167563Y-15605650D01*
X6167563Y-15605650D02*
X6186610Y-15615174D01*
X6186610Y-15615174D02*
X6196134Y-15634222D01*
X6196134Y-15634222D02*
X6196134Y-15738984D01*
X6196134Y-15634222D02*
X6205658Y-15615174D01*
X6205658Y-15615174D02*
X6224705Y-15605650D01*
X6224705Y-15605650D02*
X6253277Y-15605650D01*
X6253277Y-15605650D02*
X6272324Y-15615174D01*
X6272324Y-15615174D02*
X6281848Y-15634222D01*
X6281848Y-15634222D02*
X6281848Y-15738984D01*
X6377086Y-15738984D02*
X6377086Y-15605650D01*
X6377086Y-15624698D02*
X6386610Y-15615174D01*
X6386610Y-15615174D02*
X6405658Y-15605650D01*
X6405658Y-15605650D02*
X6434229Y-15605650D01*
X6434229Y-15605650D02*
X6453277Y-15615174D01*
X6453277Y-15615174D02*
X6462801Y-15634222D01*
X6462801Y-15634222D02*
X6462801Y-15738984D01*
X6462801Y-15634222D02*
X6472324Y-15615174D01*
X6472324Y-15615174D02*
X6491372Y-15605650D01*
X6491372Y-15605650D02*
X6519943Y-15605650D01*
X6519943Y-15605650D02*
X6538991Y-15615174D01*
X6538991Y-15615174D02*
X6548515Y-15634222D01*
X6548515Y-15634222D02*
X6548515Y-15738984D01*
X6938991Y-15529460D02*
X6767563Y-15786603D01*
X7196134Y-15538984D02*
X7215182Y-15538984D01*
X7215182Y-15538984D02*
X7234229Y-15548508D01*
X7234229Y-15548508D02*
X7243753Y-15558031D01*
X7243753Y-15558031D02*
X7253277Y-15577079D01*
X7253277Y-15577079D02*
X7262801Y-15615174D01*
X7262801Y-15615174D02*
X7262801Y-15662793D01*
X7262801Y-15662793D02*
X7253277Y-15700888D01*
X7253277Y-15700888D02*
X7243753Y-15719936D01*
X7243753Y-15719936D02*
X7234229Y-15729460D01*
X7234229Y-15729460D02*
X7215182Y-15738984D01*
X7215182Y-15738984D02*
X7196134Y-15738984D01*
X7196134Y-15738984D02*
X7177086Y-15729460D01*
X7177086Y-15729460D02*
X7167563Y-15719936D01*
X7167563Y-15719936D02*
X7158039Y-15700888D01*
X7158039Y-15700888D02*
X7148515Y-15662793D01*
X7148515Y-15662793D02*
X7148515Y-15615174D01*
X7148515Y-15615174D02*
X7158039Y-15577079D01*
X7158039Y-15577079D02*
X7167563Y-15558031D01*
X7167563Y-15558031D02*
X7177086Y-15548508D01*
X7177086Y-15548508D02*
X7196134Y-15538984D01*
X7348515Y-15719936D02*
X7358039Y-15729460D01*
X7358039Y-15729460D02*
X7348515Y-15738984D01*
X7348515Y-15738984D02*
X7338991Y-15729460D01*
X7338991Y-15729460D02*
X7348515Y-15719936D01*
X7348515Y-15719936D02*
X7348515Y-15738984D01*
X7481848Y-15538984D02*
X7500896Y-15538984D01*
X7500896Y-15538984D02*
X7519944Y-15548508D01*
X7519944Y-15548508D02*
X7529467Y-15558031D01*
X7529467Y-15558031D02*
X7538991Y-15577079D01*
X7538991Y-15577079D02*
X7548515Y-15615174D01*
X7548515Y-15615174D02*
X7548515Y-15662793D01*
X7548515Y-15662793D02*
X7538991Y-15700888D01*
X7538991Y-15700888D02*
X7529467Y-15719936D01*
X7529467Y-15719936D02*
X7519944Y-15729460D01*
X7519944Y-15729460D02*
X7500896Y-15738984D01*
X7500896Y-15738984D02*
X7481848Y-15738984D01*
X7481848Y-15738984D02*
X7462801Y-15729460D01*
X7462801Y-15729460D02*
X7453277Y-15719936D01*
X7453277Y-15719936D02*
X7443753Y-15700888D01*
X7443753Y-15700888D02*
X7434229Y-15662793D01*
X7434229Y-15662793D02*
X7434229Y-15615174D01*
X7434229Y-15615174D02*
X7443753Y-15577079D01*
X7443753Y-15577079D02*
X7453277Y-15558031D01*
X7453277Y-15558031D02*
X7462801Y-15548508D01*
X7462801Y-15548508D02*
X7481848Y-15538984D01*
X7729467Y-15538984D02*
X7634229Y-15538984D01*
X7634229Y-15538984D02*
X7624706Y-15634222D01*
X7624706Y-15634222D02*
X7634229Y-15624698D01*
X7634229Y-15624698D02*
X7653277Y-15615174D01*
X7653277Y-15615174D02*
X7700896Y-15615174D01*
X7700896Y-15615174D02*
X7719944Y-15624698D01*
X7719944Y-15624698D02*
X7729467Y-15634222D01*
X7729467Y-15634222D02*
X7738991Y-15653269D01*
X7738991Y-15653269D02*
X7738991Y-15700888D01*
X7738991Y-15700888D02*
X7729467Y-15719936D01*
X7729467Y-15719936D02*
X7719944Y-15729460D01*
X7719944Y-15729460D02*
X7700896Y-15738984D01*
X7700896Y-15738984D02*
X7653277Y-15738984D01*
X7653277Y-15738984D02*
X7634229Y-15729460D01*
X7634229Y-15729460D02*
X7624706Y-15719936D01*
X7834229Y-15738984D02*
X7872325Y-15738984D01*
X7872325Y-15738984D02*
X7891372Y-15729460D01*
X7891372Y-15729460D02*
X7900896Y-15719936D01*
X7900896Y-15719936D02*
X7919944Y-15691365D01*
X7919944Y-15691365D02*
X7929467Y-15653269D01*
X7929467Y-15653269D02*
X7929467Y-15577079D01*
X7929467Y-15577079D02*
X7919944Y-15558031D01*
X7919944Y-15558031D02*
X7910420Y-15548508D01*
X7910420Y-15548508D02*
X7891372Y-15538984D01*
X7891372Y-15538984D02*
X7853277Y-15538984D01*
X7853277Y-15538984D02*
X7834229Y-15548508D01*
X7834229Y-15548508D02*
X7824706Y-15558031D01*
X7824706Y-15558031D02*
X7815182Y-15577079D01*
X7815182Y-15577079D02*
X7815182Y-15624698D01*
X7815182Y-15624698D02*
X7824706Y-15643746D01*
X7824706Y-15643746D02*
X7834229Y-15653269D01*
X7834229Y-15653269D02*
X7853277Y-15662793D01*
X7853277Y-15662793D02*
X7891372Y-15662793D01*
X7891372Y-15662793D02*
X7910420Y-15653269D01*
X7910420Y-15653269D02*
X7919944Y-15643746D01*
X7919944Y-15643746D02*
X7929467Y-15624698D01*
X8119944Y-15738984D02*
X8005658Y-15738984D01*
X8062801Y-15738984D02*
X8062801Y-15538984D01*
X8062801Y-15538984D02*
X8043753Y-15567555D01*
X8043753Y-15567555D02*
X8024706Y-15586603D01*
X8024706Y-15586603D02*
X8005658Y-15596127D01*
X8196134Y-15538984D02*
X8196134Y-15577079D01*
X8272325Y-15538984D02*
X8272325Y-15577079D01*
X8567563Y-15815174D02*
X8558039Y-15805650D01*
X8558039Y-15805650D02*
X8538991Y-15777079D01*
X8538991Y-15777079D02*
X8529468Y-15758031D01*
X8529468Y-15758031D02*
X8519944Y-15729460D01*
X8519944Y-15729460D02*
X8510420Y-15681841D01*
X8510420Y-15681841D02*
X8510420Y-15643746D01*
X8510420Y-15643746D02*
X8519944Y-15596127D01*
X8519944Y-15596127D02*
X8529468Y-15567555D01*
X8529468Y-15567555D02*
X8538991Y-15548508D01*
X8538991Y-15548508D02*
X8558039Y-15519936D01*
X8558039Y-15519936D02*
X8567563Y-15510412D01*
X8634230Y-15558031D02*
X8643753Y-15548508D01*
X8643753Y-15548508D02*
X8662801Y-15538984D01*
X8662801Y-15538984D02*
X8710420Y-15538984D01*
X8710420Y-15538984D02*
X8729468Y-15548508D01*
X8729468Y-15548508D02*
X8738991Y-15558031D01*
X8738991Y-15558031D02*
X8748515Y-15577079D01*
X8748515Y-15577079D02*
X8748515Y-15596127D01*
X8748515Y-15596127D02*
X8738991Y-15624698D01*
X8738991Y-15624698D02*
X8624706Y-15738984D01*
X8624706Y-15738984D02*
X8748515Y-15738984D01*
X8986611Y-15738984D02*
X8986611Y-15538984D01*
X9072325Y-15738984D02*
X9072325Y-15634222D01*
X9072325Y-15634222D02*
X9062801Y-15615174D01*
X9062801Y-15615174D02*
X9043753Y-15605650D01*
X9043753Y-15605650D02*
X9015182Y-15605650D01*
X9015182Y-15605650D02*
X8996134Y-15615174D01*
X8996134Y-15615174D02*
X8986611Y-15624698D01*
X9196134Y-15738984D02*
X9177087Y-15729460D01*
X9177087Y-15729460D02*
X9167563Y-15719936D01*
X9167563Y-15719936D02*
X9158039Y-15700888D01*
X9158039Y-15700888D02*
X9158039Y-15643746D01*
X9158039Y-15643746D02*
X9167563Y-15624698D01*
X9167563Y-15624698D02*
X9177087Y-15615174D01*
X9177087Y-15615174D02*
X9196134Y-15605650D01*
X9196134Y-15605650D02*
X9224706Y-15605650D01*
X9224706Y-15605650D02*
X9243753Y-15615174D01*
X9243753Y-15615174D02*
X9253277Y-15624698D01*
X9253277Y-15624698D02*
X9262801Y-15643746D01*
X9262801Y-15643746D02*
X9262801Y-15700888D01*
X9262801Y-15700888D02*
X9253277Y-15719936D01*
X9253277Y-15719936D02*
X9243753Y-15729460D01*
X9243753Y-15729460D02*
X9224706Y-15738984D01*
X9224706Y-15738984D02*
X9196134Y-15738984D01*
X9377087Y-15738984D02*
X9358039Y-15729460D01*
X9358039Y-15729460D02*
X9348515Y-15710412D01*
X9348515Y-15710412D02*
X9348515Y-15538984D01*
X9529468Y-15729460D02*
X9510420Y-15738984D01*
X9510420Y-15738984D02*
X9472325Y-15738984D01*
X9472325Y-15738984D02*
X9453277Y-15729460D01*
X9453277Y-15729460D02*
X9443753Y-15710412D01*
X9443753Y-15710412D02*
X9443753Y-15634222D01*
X9443753Y-15634222D02*
X9453277Y-15615174D01*
X9453277Y-15615174D02*
X9472325Y-15605650D01*
X9472325Y-15605650D02*
X9510420Y-15605650D01*
X9510420Y-15605650D02*
X9529468Y-15615174D01*
X9529468Y-15615174D02*
X9538992Y-15634222D01*
X9538992Y-15634222D02*
X9538992Y-15653269D01*
X9538992Y-15653269D02*
X9443753Y-15672317D01*
X9615182Y-15729460D02*
X9634230Y-15738984D01*
X9634230Y-15738984D02*
X9672325Y-15738984D01*
X9672325Y-15738984D02*
X9691373Y-15729460D01*
X9691373Y-15729460D02*
X9700896Y-15710412D01*
X9700896Y-15710412D02*
X9700896Y-15700888D01*
X9700896Y-15700888D02*
X9691373Y-15681841D01*
X9691373Y-15681841D02*
X9672325Y-15672317D01*
X9672325Y-15672317D02*
X9643753Y-15672317D01*
X9643753Y-15672317D02*
X9624706Y-15662793D01*
X9624706Y-15662793D02*
X9615182Y-15643746D01*
X9615182Y-15643746D02*
X9615182Y-15634222D01*
X9615182Y-15634222D02*
X9624706Y-15615174D01*
X9624706Y-15615174D02*
X9643753Y-15605650D01*
X9643753Y-15605650D02*
X9672325Y-15605650D01*
X9672325Y-15605650D02*
X9691373Y-15615174D01*
X9767563Y-15815174D02*
X9777087Y-15805650D01*
X9777087Y-15805650D02*
X9796134Y-15777079D01*
X9796134Y-15777079D02*
X9805658Y-15758031D01*
X9805658Y-15758031D02*
X9815182Y-15729460D01*
X9815182Y-15729460D02*
X9824706Y-15681841D01*
X9824706Y-15681841D02*
X9824706Y-15643746D01*
X9824706Y-15643746D02*
X9815182Y-15596127D01*
X9815182Y-15596127D02*
X9805658Y-15567555D01*
X9805658Y-15567555D02*
X9796134Y-15548508D01*
X9796134Y-15548508D02*
X9777087Y-15519936D01*
X9777087Y-15519936D02*
X9767563Y-15510412D01*
X10129468Y-15815174D02*
X10119944Y-15805650D01*
X10119944Y-15805650D02*
X10100896Y-15777079D01*
X10100896Y-15777079D02*
X10091373Y-15758031D01*
X10091373Y-15758031D02*
X10081849Y-15729460D01*
X10081849Y-15729460D02*
X10072325Y-15681841D01*
X10072325Y-15681841D02*
X10072325Y-15643746D01*
X10072325Y-15643746D02*
X10081849Y-15596127D01*
X10081849Y-15596127D02*
X10091373Y-15567555D01*
X10091373Y-15567555D02*
X10100896Y-15548508D01*
X10100896Y-15548508D02*
X10119944Y-15519936D01*
X10119944Y-15519936D02*
X10129468Y-15510412D01*
X10205658Y-15605650D02*
X10205658Y-15738984D01*
X10205658Y-15624698D02*
X10215182Y-15615174D01*
X10215182Y-15615174D02*
X10234230Y-15605650D01*
X10234230Y-15605650D02*
X10262801Y-15605650D01*
X10262801Y-15605650D02*
X10281849Y-15615174D01*
X10281849Y-15615174D02*
X10291373Y-15634222D01*
X10291373Y-15634222D02*
X10291373Y-15738984D01*
X10415182Y-15738984D02*
X10396134Y-15729460D01*
X10396134Y-15729460D02*
X10386611Y-15719936D01*
X10386611Y-15719936D02*
X10377087Y-15700888D01*
X10377087Y-15700888D02*
X10377087Y-15643746D01*
X10377087Y-15643746D02*
X10386611Y-15624698D01*
X10386611Y-15624698D02*
X10396134Y-15615174D01*
X10396134Y-15615174D02*
X10415182Y-15605650D01*
X10415182Y-15605650D02*
X10443754Y-15605650D01*
X10443754Y-15605650D02*
X10462801Y-15615174D01*
X10462801Y-15615174D02*
X10472325Y-15624698D01*
X10472325Y-15624698D02*
X10481849Y-15643746D01*
X10481849Y-15643746D02*
X10481849Y-15700888D01*
X10481849Y-15700888D02*
X10472325Y-15719936D01*
X10472325Y-15719936D02*
X10462801Y-15729460D01*
X10462801Y-15729460D02*
X10443754Y-15738984D01*
X10443754Y-15738984D02*
X10415182Y-15738984D01*
X10538992Y-15605650D02*
X10615182Y-15605650D01*
X10567563Y-15538984D02*
X10567563Y-15710412D01*
X10567563Y-15710412D02*
X10577087Y-15729460D01*
X10577087Y-15729460D02*
X10596134Y-15738984D01*
X10596134Y-15738984D02*
X10615182Y-15738984D01*
X10834230Y-15605650D02*
X10834230Y-15805650D01*
X10834230Y-15615174D02*
X10853277Y-15605650D01*
X10853277Y-15605650D02*
X10891373Y-15605650D01*
X10891373Y-15605650D02*
X10910420Y-15615174D01*
X10910420Y-15615174D02*
X10919944Y-15624698D01*
X10919944Y-15624698D02*
X10929468Y-15643746D01*
X10929468Y-15643746D02*
X10929468Y-15700888D01*
X10929468Y-15700888D02*
X10919944Y-15719936D01*
X10919944Y-15719936D02*
X10910420Y-15729460D01*
X10910420Y-15729460D02*
X10891373Y-15738984D01*
X10891373Y-15738984D02*
X10853277Y-15738984D01*
X10853277Y-15738984D02*
X10834230Y-15729460D01*
X11043754Y-15738984D02*
X11024706Y-15729460D01*
X11024706Y-15729460D02*
X11015182Y-15710412D01*
X11015182Y-15710412D02*
X11015182Y-15538984D01*
X11205658Y-15738984D02*
X11205658Y-15634222D01*
X11205658Y-15634222D02*
X11196134Y-15615174D01*
X11196134Y-15615174D02*
X11177087Y-15605650D01*
X11177087Y-15605650D02*
X11138992Y-15605650D01*
X11138992Y-15605650D02*
X11119944Y-15615174D01*
X11205658Y-15729460D02*
X11186611Y-15738984D01*
X11186611Y-15738984D02*
X11138992Y-15738984D01*
X11138992Y-15738984D02*
X11119944Y-15729460D01*
X11119944Y-15729460D02*
X11110420Y-15710412D01*
X11110420Y-15710412D02*
X11110420Y-15691365D01*
X11110420Y-15691365D02*
X11119944Y-15672317D01*
X11119944Y-15672317D02*
X11138992Y-15662793D01*
X11138992Y-15662793D02*
X11186611Y-15662793D01*
X11186611Y-15662793D02*
X11205658Y-15653269D01*
X11272325Y-15605650D02*
X11348515Y-15605650D01*
X11300896Y-15538984D02*
X11300896Y-15710412D01*
X11300896Y-15710412D02*
X11310420Y-15729460D01*
X11310420Y-15729460D02*
X11329468Y-15738984D01*
X11329468Y-15738984D02*
X11348515Y-15738984D01*
X11491373Y-15729460D02*
X11472325Y-15738984D01*
X11472325Y-15738984D02*
X11434230Y-15738984D01*
X11434230Y-15738984D02*
X11415182Y-15729460D01*
X11415182Y-15729460D02*
X11405658Y-15710412D01*
X11405658Y-15710412D02*
X11405658Y-15634222D01*
X11405658Y-15634222D02*
X11415182Y-15615174D01*
X11415182Y-15615174D02*
X11434230Y-15605650D01*
X11434230Y-15605650D02*
X11472325Y-15605650D01*
X11472325Y-15605650D02*
X11491373Y-15615174D01*
X11491373Y-15615174D02*
X11500896Y-15634222D01*
X11500896Y-15634222D02*
X11500896Y-15653269D01*
X11500896Y-15653269D02*
X11405658Y-15672317D01*
X11672325Y-15738984D02*
X11672325Y-15538984D01*
X11672325Y-15729460D02*
X11653277Y-15738984D01*
X11653277Y-15738984D02*
X11615182Y-15738984D01*
X11615182Y-15738984D02*
X11596134Y-15729460D01*
X11596134Y-15729460D02*
X11586611Y-15719936D01*
X11586611Y-15719936D02*
X11577087Y-15700888D01*
X11577087Y-15700888D02*
X11577087Y-15643746D01*
X11577087Y-15643746D02*
X11586611Y-15624698D01*
X11586611Y-15624698D02*
X11596134Y-15615174D01*
X11596134Y-15615174D02*
X11615182Y-15605650D01*
X11615182Y-15605650D02*
X11653277Y-15605650D01*
X11653277Y-15605650D02*
X11672325Y-15615174D01*
X11748515Y-15815174D02*
X11758039Y-15805650D01*
X11758039Y-15805650D02*
X11777087Y-15777079D01*
X11777087Y-15777079D02*
X11786611Y-15758031D01*
X11786611Y-15758031D02*
X11796134Y-15729460D01*
X11796134Y-15729460D02*
X11805658Y-15681841D01*
X11805658Y-15681841D02*
X11805658Y-15643746D01*
X11805658Y-15643746D02*
X11796134Y-15596127D01*
X11796134Y-15596127D02*
X11786611Y-15567555D01*
X11786611Y-15567555D02*
X11777087Y-15548508D01*
X11777087Y-15548508D02*
X11758039Y-15519936D01*
X11758039Y-15519936D02*
X11748515Y-15510412D01*
D12*
X4992500Y-15917500D02*
G75*
G03*
X4812500Y-15917500I-90000J0D01*
G01*
X4812500Y-15917500D02*
G75*
G03*
X4992500Y-15917500I90000J0D01*
G01*
D11*
X5358039Y-16008984D02*
X5243753Y-16008984D01*
X5300896Y-16008984D02*
X5300896Y-15808984D01*
X5300896Y-15808984D02*
X5281848Y-15837555D01*
X5281848Y-15837555D02*
X5262801Y-15856603D01*
X5262801Y-15856603D02*
X5243753Y-15866127D01*
X5443753Y-15989936D02*
X5453277Y-15999460D01*
X5453277Y-15999460D02*
X5443753Y-16008984D01*
X5443753Y-16008984D02*
X5434229Y-15999460D01*
X5434229Y-15999460D02*
X5443753Y-15989936D01*
X5443753Y-15989936D02*
X5443753Y-16008984D01*
X5567563Y-15894698D02*
X5548515Y-15885174D01*
X5548515Y-15885174D02*
X5538991Y-15875650D01*
X5538991Y-15875650D02*
X5529467Y-15856603D01*
X5529467Y-15856603D02*
X5529467Y-15847079D01*
X5529467Y-15847079D02*
X5538991Y-15828031D01*
X5538991Y-15828031D02*
X5548515Y-15818508D01*
X5548515Y-15818508D02*
X5567563Y-15808984D01*
X5567563Y-15808984D02*
X5605658Y-15808984D01*
X5605658Y-15808984D02*
X5624705Y-15818508D01*
X5624705Y-15818508D02*
X5634229Y-15828031D01*
X5634229Y-15828031D02*
X5643753Y-15847079D01*
X5643753Y-15847079D02*
X5643753Y-15856603D01*
X5643753Y-15856603D02*
X5634229Y-15875650D01*
X5634229Y-15875650D02*
X5624705Y-15885174D01*
X5624705Y-15885174D02*
X5605658Y-15894698D01*
X5605658Y-15894698D02*
X5567563Y-15894698D01*
X5567563Y-15894698D02*
X5548515Y-15904222D01*
X5548515Y-15904222D02*
X5538991Y-15913746D01*
X5538991Y-15913746D02*
X5529467Y-15932793D01*
X5529467Y-15932793D02*
X5529467Y-15970888D01*
X5529467Y-15970888D02*
X5538991Y-15989936D01*
X5538991Y-15989936D02*
X5548515Y-15999460D01*
X5548515Y-15999460D02*
X5567563Y-16008984D01*
X5567563Y-16008984D02*
X5605658Y-16008984D01*
X5605658Y-16008984D02*
X5624705Y-15999460D01*
X5624705Y-15999460D02*
X5634229Y-15989936D01*
X5634229Y-15989936D02*
X5643753Y-15970888D01*
X5643753Y-15970888D02*
X5643753Y-15932793D01*
X5643753Y-15932793D02*
X5634229Y-15913746D01*
X5634229Y-15913746D02*
X5624705Y-15904222D01*
X5624705Y-15904222D02*
X5605658Y-15894698D01*
X5767562Y-15808984D02*
X5786610Y-15808984D01*
X5786610Y-15808984D02*
X5805658Y-15818508D01*
X5805658Y-15818508D02*
X5815182Y-15828031D01*
X5815182Y-15828031D02*
X5824705Y-15847079D01*
X5824705Y-15847079D02*
X5834229Y-15885174D01*
X5834229Y-15885174D02*
X5834229Y-15932793D01*
X5834229Y-15932793D02*
X5824705Y-15970888D01*
X5824705Y-15970888D02*
X5815182Y-15989936D01*
X5815182Y-15989936D02*
X5805658Y-15999460D01*
X5805658Y-15999460D02*
X5786610Y-16008984D01*
X5786610Y-16008984D02*
X5767562Y-16008984D01*
X5767562Y-16008984D02*
X5748515Y-15999460D01*
X5748515Y-15999460D02*
X5738991Y-15989936D01*
X5738991Y-15989936D02*
X5729467Y-15970888D01*
X5729467Y-15970888D02*
X5719943Y-15932793D01*
X5719943Y-15932793D02*
X5719943Y-15885174D01*
X5719943Y-15885174D02*
X5729467Y-15847079D01*
X5729467Y-15847079D02*
X5738991Y-15828031D01*
X5738991Y-15828031D02*
X5748515Y-15818508D01*
X5748515Y-15818508D02*
X5767562Y-15808984D01*
X5958039Y-15808984D02*
X5977086Y-15808984D01*
X5977086Y-15808984D02*
X5996134Y-15818508D01*
X5996134Y-15818508D02*
X6005658Y-15828031D01*
X6005658Y-15828031D02*
X6015182Y-15847079D01*
X6015182Y-15847079D02*
X6024705Y-15885174D01*
X6024705Y-15885174D02*
X6024705Y-15932793D01*
X6024705Y-15932793D02*
X6015182Y-15970888D01*
X6015182Y-15970888D02*
X6005658Y-15989936D01*
X6005658Y-15989936D02*
X5996134Y-15999460D01*
X5996134Y-15999460D02*
X5977086Y-16008984D01*
X5977086Y-16008984D02*
X5958039Y-16008984D01*
X5958039Y-16008984D02*
X5938991Y-15999460D01*
X5938991Y-15999460D02*
X5929467Y-15989936D01*
X5929467Y-15989936D02*
X5919943Y-15970888D01*
X5919943Y-15970888D02*
X5910420Y-15932793D01*
X5910420Y-15932793D02*
X5910420Y-15885174D01*
X5910420Y-15885174D02*
X5919943Y-15847079D01*
X5919943Y-15847079D02*
X5929467Y-15828031D01*
X5929467Y-15828031D02*
X5938991Y-15818508D01*
X5938991Y-15818508D02*
X5958039Y-15808984D01*
X6110420Y-16008984D02*
X6110420Y-15875650D01*
X6110420Y-15894698D02*
X6119943Y-15885174D01*
X6119943Y-15885174D02*
X6138991Y-15875650D01*
X6138991Y-15875650D02*
X6167563Y-15875650D01*
X6167563Y-15875650D02*
X6186610Y-15885174D01*
X6186610Y-15885174D02*
X6196134Y-15904222D01*
X6196134Y-15904222D02*
X6196134Y-16008984D01*
X6196134Y-15904222D02*
X6205658Y-15885174D01*
X6205658Y-15885174D02*
X6224705Y-15875650D01*
X6224705Y-15875650D02*
X6253277Y-15875650D01*
X6253277Y-15875650D02*
X6272324Y-15885174D01*
X6272324Y-15885174D02*
X6281848Y-15904222D01*
X6281848Y-15904222D02*
X6281848Y-16008984D01*
X6377086Y-16008984D02*
X6377086Y-15875650D01*
X6377086Y-15894698D02*
X6386610Y-15885174D01*
X6386610Y-15885174D02*
X6405658Y-15875650D01*
X6405658Y-15875650D02*
X6434229Y-15875650D01*
X6434229Y-15875650D02*
X6453277Y-15885174D01*
X6453277Y-15885174D02*
X6462801Y-15904222D01*
X6462801Y-15904222D02*
X6462801Y-16008984D01*
X6462801Y-15904222D02*
X6472324Y-15885174D01*
X6472324Y-15885174D02*
X6491372Y-15875650D01*
X6491372Y-15875650D02*
X6519943Y-15875650D01*
X6519943Y-15875650D02*
X6538991Y-15885174D01*
X6538991Y-15885174D02*
X6548515Y-15904222D01*
X6548515Y-15904222D02*
X6548515Y-16008984D01*
X6938991Y-15799460D02*
X6767563Y-16056603D01*
X7196134Y-15808984D02*
X7215182Y-15808984D01*
X7215182Y-15808984D02*
X7234229Y-15818508D01*
X7234229Y-15818508D02*
X7243753Y-15828031D01*
X7243753Y-15828031D02*
X7253277Y-15847079D01*
X7253277Y-15847079D02*
X7262801Y-15885174D01*
X7262801Y-15885174D02*
X7262801Y-15932793D01*
X7262801Y-15932793D02*
X7253277Y-15970888D01*
X7253277Y-15970888D02*
X7243753Y-15989936D01*
X7243753Y-15989936D02*
X7234229Y-15999460D01*
X7234229Y-15999460D02*
X7215182Y-16008984D01*
X7215182Y-16008984D02*
X7196134Y-16008984D01*
X7196134Y-16008984D02*
X7177086Y-15999460D01*
X7177086Y-15999460D02*
X7167563Y-15989936D01*
X7167563Y-15989936D02*
X7158039Y-15970888D01*
X7158039Y-15970888D02*
X7148515Y-15932793D01*
X7148515Y-15932793D02*
X7148515Y-15885174D01*
X7148515Y-15885174D02*
X7158039Y-15847079D01*
X7158039Y-15847079D02*
X7167563Y-15828031D01*
X7167563Y-15828031D02*
X7177086Y-15818508D01*
X7177086Y-15818508D02*
X7196134Y-15808984D01*
X7348515Y-15989936D02*
X7358039Y-15999460D01*
X7358039Y-15999460D02*
X7348515Y-16008984D01*
X7348515Y-16008984D02*
X7338991Y-15999460D01*
X7338991Y-15999460D02*
X7348515Y-15989936D01*
X7348515Y-15989936D02*
X7348515Y-16008984D01*
X7481848Y-15808984D02*
X7500896Y-15808984D01*
X7500896Y-15808984D02*
X7519944Y-15818508D01*
X7519944Y-15818508D02*
X7529467Y-15828031D01*
X7529467Y-15828031D02*
X7538991Y-15847079D01*
X7538991Y-15847079D02*
X7548515Y-15885174D01*
X7548515Y-15885174D02*
X7548515Y-15932793D01*
X7548515Y-15932793D02*
X7538991Y-15970888D01*
X7538991Y-15970888D02*
X7529467Y-15989936D01*
X7529467Y-15989936D02*
X7519944Y-15999460D01*
X7519944Y-15999460D02*
X7500896Y-16008984D01*
X7500896Y-16008984D02*
X7481848Y-16008984D01*
X7481848Y-16008984D02*
X7462801Y-15999460D01*
X7462801Y-15999460D02*
X7453277Y-15989936D01*
X7453277Y-15989936D02*
X7443753Y-15970888D01*
X7443753Y-15970888D02*
X7434229Y-15932793D01*
X7434229Y-15932793D02*
X7434229Y-15885174D01*
X7434229Y-15885174D02*
X7443753Y-15847079D01*
X7443753Y-15847079D02*
X7453277Y-15828031D01*
X7453277Y-15828031D02*
X7462801Y-15818508D01*
X7462801Y-15818508D02*
X7481848Y-15808984D01*
X7615182Y-15808984D02*
X7748515Y-15808984D01*
X7748515Y-15808984D02*
X7662801Y-16008984D01*
X7862801Y-15808984D02*
X7881848Y-15808984D01*
X7881848Y-15808984D02*
X7900896Y-15818508D01*
X7900896Y-15818508D02*
X7910420Y-15828031D01*
X7910420Y-15828031D02*
X7919944Y-15847079D01*
X7919944Y-15847079D02*
X7929467Y-15885174D01*
X7929467Y-15885174D02*
X7929467Y-15932793D01*
X7929467Y-15932793D02*
X7919944Y-15970888D01*
X7919944Y-15970888D02*
X7910420Y-15989936D01*
X7910420Y-15989936D02*
X7900896Y-15999460D01*
X7900896Y-15999460D02*
X7881848Y-16008984D01*
X7881848Y-16008984D02*
X7862801Y-16008984D01*
X7862801Y-16008984D02*
X7843753Y-15999460D01*
X7843753Y-15999460D02*
X7834229Y-15989936D01*
X7834229Y-15989936D02*
X7824706Y-15970888D01*
X7824706Y-15970888D02*
X7815182Y-15932793D01*
X7815182Y-15932793D02*
X7815182Y-15885174D01*
X7815182Y-15885174D02*
X7824706Y-15847079D01*
X7824706Y-15847079D02*
X7834229Y-15828031D01*
X7834229Y-15828031D02*
X7843753Y-15818508D01*
X7843753Y-15818508D02*
X7862801Y-15808984D01*
X8024706Y-16008984D02*
X8062801Y-16008984D01*
X8062801Y-16008984D02*
X8081848Y-15999460D01*
X8081848Y-15999460D02*
X8091372Y-15989936D01*
X8091372Y-15989936D02*
X8110420Y-15961365D01*
X8110420Y-15961365D02*
X8119944Y-15923269D01*
X8119944Y-15923269D02*
X8119944Y-15847079D01*
X8119944Y-15847079D02*
X8110420Y-15828031D01*
X8110420Y-15828031D02*
X8100896Y-15818508D01*
X8100896Y-15818508D02*
X8081848Y-15808984D01*
X8081848Y-15808984D02*
X8043753Y-15808984D01*
X8043753Y-15808984D02*
X8024706Y-15818508D01*
X8024706Y-15818508D02*
X8015182Y-15828031D01*
X8015182Y-15828031D02*
X8005658Y-15847079D01*
X8005658Y-15847079D02*
X8005658Y-15894698D01*
X8005658Y-15894698D02*
X8015182Y-15913746D01*
X8015182Y-15913746D02*
X8024706Y-15923269D01*
X8024706Y-15923269D02*
X8043753Y-15932793D01*
X8043753Y-15932793D02*
X8081848Y-15932793D01*
X8081848Y-15932793D02*
X8100896Y-15923269D01*
X8100896Y-15923269D02*
X8110420Y-15913746D01*
X8110420Y-15913746D02*
X8119944Y-15894698D01*
X8196134Y-15808984D02*
X8196134Y-15847079D01*
X8272325Y-15808984D02*
X8272325Y-15847079D01*
X8567563Y-16085174D02*
X8558039Y-16075650D01*
X8558039Y-16075650D02*
X8538991Y-16047079D01*
X8538991Y-16047079D02*
X8529468Y-16028031D01*
X8529468Y-16028031D02*
X8519944Y-15999460D01*
X8519944Y-15999460D02*
X8510420Y-15951841D01*
X8510420Y-15951841D02*
X8510420Y-15913746D01*
X8510420Y-15913746D02*
X8519944Y-15866127D01*
X8519944Y-15866127D02*
X8529468Y-15837555D01*
X8529468Y-15837555D02*
X8538991Y-15818508D01*
X8538991Y-15818508D02*
X8558039Y-15789936D01*
X8558039Y-15789936D02*
X8567563Y-15780412D01*
X8634230Y-15828031D02*
X8643753Y-15818508D01*
X8643753Y-15818508D02*
X8662801Y-15808984D01*
X8662801Y-15808984D02*
X8710420Y-15808984D01*
X8710420Y-15808984D02*
X8729468Y-15818508D01*
X8729468Y-15818508D02*
X8738991Y-15828031D01*
X8738991Y-15828031D02*
X8748515Y-15847079D01*
X8748515Y-15847079D02*
X8748515Y-15866127D01*
X8748515Y-15866127D02*
X8738991Y-15894698D01*
X8738991Y-15894698D02*
X8624706Y-16008984D01*
X8624706Y-16008984D02*
X8748515Y-16008984D01*
X8986611Y-16008984D02*
X8986611Y-15808984D01*
X9072325Y-16008984D02*
X9072325Y-15904222D01*
X9072325Y-15904222D02*
X9062801Y-15885174D01*
X9062801Y-15885174D02*
X9043753Y-15875650D01*
X9043753Y-15875650D02*
X9015182Y-15875650D01*
X9015182Y-15875650D02*
X8996134Y-15885174D01*
X8996134Y-15885174D02*
X8986611Y-15894698D01*
X9196134Y-16008984D02*
X9177087Y-15999460D01*
X9177087Y-15999460D02*
X9167563Y-15989936D01*
X9167563Y-15989936D02*
X9158039Y-15970888D01*
X9158039Y-15970888D02*
X9158039Y-15913746D01*
X9158039Y-15913746D02*
X9167563Y-15894698D01*
X9167563Y-15894698D02*
X9177087Y-15885174D01*
X9177087Y-15885174D02*
X9196134Y-15875650D01*
X9196134Y-15875650D02*
X9224706Y-15875650D01*
X9224706Y-15875650D02*
X9243753Y-15885174D01*
X9243753Y-15885174D02*
X9253277Y-15894698D01*
X9253277Y-15894698D02*
X9262801Y-15913746D01*
X9262801Y-15913746D02*
X9262801Y-15970888D01*
X9262801Y-15970888D02*
X9253277Y-15989936D01*
X9253277Y-15989936D02*
X9243753Y-15999460D01*
X9243753Y-15999460D02*
X9224706Y-16008984D01*
X9224706Y-16008984D02*
X9196134Y-16008984D01*
X9377087Y-16008984D02*
X9358039Y-15999460D01*
X9358039Y-15999460D02*
X9348515Y-15980412D01*
X9348515Y-15980412D02*
X9348515Y-15808984D01*
X9529468Y-15999460D02*
X9510420Y-16008984D01*
X9510420Y-16008984D02*
X9472325Y-16008984D01*
X9472325Y-16008984D02*
X9453277Y-15999460D01*
X9453277Y-15999460D02*
X9443753Y-15980412D01*
X9443753Y-15980412D02*
X9443753Y-15904222D01*
X9443753Y-15904222D02*
X9453277Y-15885174D01*
X9453277Y-15885174D02*
X9472325Y-15875650D01*
X9472325Y-15875650D02*
X9510420Y-15875650D01*
X9510420Y-15875650D02*
X9529468Y-15885174D01*
X9529468Y-15885174D02*
X9538992Y-15904222D01*
X9538992Y-15904222D02*
X9538992Y-15923269D01*
X9538992Y-15923269D02*
X9443753Y-15942317D01*
X9615182Y-15999460D02*
X9634230Y-16008984D01*
X9634230Y-16008984D02*
X9672325Y-16008984D01*
X9672325Y-16008984D02*
X9691373Y-15999460D01*
X9691373Y-15999460D02*
X9700896Y-15980412D01*
X9700896Y-15980412D02*
X9700896Y-15970888D01*
X9700896Y-15970888D02*
X9691373Y-15951841D01*
X9691373Y-15951841D02*
X9672325Y-15942317D01*
X9672325Y-15942317D02*
X9643753Y-15942317D01*
X9643753Y-15942317D02*
X9624706Y-15932793D01*
X9624706Y-15932793D02*
X9615182Y-15913746D01*
X9615182Y-15913746D02*
X9615182Y-15904222D01*
X9615182Y-15904222D02*
X9624706Y-15885174D01*
X9624706Y-15885174D02*
X9643753Y-15875650D01*
X9643753Y-15875650D02*
X9672325Y-15875650D01*
X9672325Y-15875650D02*
X9691373Y-15885174D01*
X9767563Y-16085174D02*
X9777087Y-16075650D01*
X9777087Y-16075650D02*
X9796134Y-16047079D01*
X9796134Y-16047079D02*
X9805658Y-16028031D01*
X9805658Y-16028031D02*
X9815182Y-15999460D01*
X9815182Y-15999460D02*
X9824706Y-15951841D01*
X9824706Y-15951841D02*
X9824706Y-15913746D01*
X9824706Y-15913746D02*
X9815182Y-15866127D01*
X9815182Y-15866127D02*
X9805658Y-15837555D01*
X9805658Y-15837555D02*
X9796134Y-15818508D01*
X9796134Y-15818508D02*
X9777087Y-15789936D01*
X9777087Y-15789936D02*
X9767563Y-15780412D01*
X10129468Y-16085174D02*
X10119944Y-16075650D01*
X10119944Y-16075650D02*
X10100896Y-16047079D01*
X10100896Y-16047079D02*
X10091373Y-16028031D01*
X10091373Y-16028031D02*
X10081849Y-15999460D01*
X10081849Y-15999460D02*
X10072325Y-15951841D01*
X10072325Y-15951841D02*
X10072325Y-15913746D01*
X10072325Y-15913746D02*
X10081849Y-15866127D01*
X10081849Y-15866127D02*
X10091373Y-15837555D01*
X10091373Y-15837555D02*
X10100896Y-15818508D01*
X10100896Y-15818508D02*
X10119944Y-15789936D01*
X10119944Y-15789936D02*
X10129468Y-15780412D01*
X10205658Y-15875650D02*
X10205658Y-16008984D01*
X10205658Y-15894698D02*
X10215182Y-15885174D01*
X10215182Y-15885174D02*
X10234230Y-15875650D01*
X10234230Y-15875650D02*
X10262801Y-15875650D01*
X10262801Y-15875650D02*
X10281849Y-15885174D01*
X10281849Y-15885174D02*
X10291373Y-15904222D01*
X10291373Y-15904222D02*
X10291373Y-16008984D01*
X10415182Y-16008984D02*
X10396134Y-15999460D01*
X10396134Y-15999460D02*
X10386611Y-15989936D01*
X10386611Y-15989936D02*
X10377087Y-15970888D01*
X10377087Y-15970888D02*
X10377087Y-15913746D01*
X10377087Y-15913746D02*
X10386611Y-15894698D01*
X10386611Y-15894698D02*
X10396134Y-15885174D01*
X10396134Y-15885174D02*
X10415182Y-15875650D01*
X10415182Y-15875650D02*
X10443754Y-15875650D01*
X10443754Y-15875650D02*
X10462801Y-15885174D01*
X10462801Y-15885174D02*
X10472325Y-15894698D01*
X10472325Y-15894698D02*
X10481849Y-15913746D01*
X10481849Y-15913746D02*
X10481849Y-15970888D01*
X10481849Y-15970888D02*
X10472325Y-15989936D01*
X10472325Y-15989936D02*
X10462801Y-15999460D01*
X10462801Y-15999460D02*
X10443754Y-16008984D01*
X10443754Y-16008984D02*
X10415182Y-16008984D01*
X10538992Y-15875650D02*
X10615182Y-15875650D01*
X10567563Y-15808984D02*
X10567563Y-15980412D01*
X10567563Y-15980412D02*
X10577087Y-15999460D01*
X10577087Y-15999460D02*
X10596134Y-16008984D01*
X10596134Y-16008984D02*
X10615182Y-16008984D01*
X10834230Y-15875650D02*
X10834230Y-16075650D01*
X10834230Y-15885174D02*
X10853277Y-15875650D01*
X10853277Y-15875650D02*
X10891373Y-15875650D01*
X10891373Y-15875650D02*
X10910420Y-15885174D01*
X10910420Y-15885174D02*
X10919944Y-15894698D01*
X10919944Y-15894698D02*
X10929468Y-15913746D01*
X10929468Y-15913746D02*
X10929468Y-15970888D01*
X10929468Y-15970888D02*
X10919944Y-15989936D01*
X10919944Y-15989936D02*
X10910420Y-15999460D01*
X10910420Y-15999460D02*
X10891373Y-16008984D01*
X10891373Y-16008984D02*
X10853277Y-16008984D01*
X10853277Y-16008984D02*
X10834230Y-15999460D01*
X11043754Y-16008984D02*
X11024706Y-15999460D01*
X11024706Y-15999460D02*
X11015182Y-15980412D01*
X11015182Y-15980412D02*
X11015182Y-15808984D01*
X11205658Y-16008984D02*
X11205658Y-15904222D01*
X11205658Y-15904222D02*
X11196134Y-15885174D01*
X11196134Y-15885174D02*
X11177087Y-15875650D01*
X11177087Y-15875650D02*
X11138992Y-15875650D01*
X11138992Y-15875650D02*
X11119944Y-15885174D01*
X11205658Y-15999460D02*
X11186611Y-16008984D01*
X11186611Y-16008984D02*
X11138992Y-16008984D01*
X11138992Y-16008984D02*
X11119944Y-15999460D01*
X11119944Y-15999460D02*
X11110420Y-15980412D01*
X11110420Y-15980412D02*
X11110420Y-15961365D01*
X11110420Y-15961365D02*
X11119944Y-15942317D01*
X11119944Y-15942317D02*
X11138992Y-15932793D01*
X11138992Y-15932793D02*
X11186611Y-15932793D01*
X11186611Y-15932793D02*
X11205658Y-15923269D01*
X11272325Y-15875650D02*
X11348515Y-15875650D01*
X11300896Y-15808984D02*
X11300896Y-15980412D01*
X11300896Y-15980412D02*
X11310420Y-15999460D01*
X11310420Y-15999460D02*
X11329468Y-16008984D01*
X11329468Y-16008984D02*
X11348515Y-16008984D01*
X11491373Y-15999460D02*
X11472325Y-16008984D01*
X11472325Y-16008984D02*
X11434230Y-16008984D01*
X11434230Y-16008984D02*
X11415182Y-15999460D01*
X11415182Y-15999460D02*
X11405658Y-15980412D01*
X11405658Y-15980412D02*
X11405658Y-15904222D01*
X11405658Y-15904222D02*
X11415182Y-15885174D01*
X11415182Y-15885174D02*
X11434230Y-15875650D01*
X11434230Y-15875650D02*
X11472325Y-15875650D01*
X11472325Y-15875650D02*
X11491373Y-15885174D01*
X11491373Y-15885174D02*
X11500896Y-15904222D01*
X11500896Y-15904222D02*
X11500896Y-15923269D01*
X11500896Y-15923269D02*
X11405658Y-15942317D01*
X11672325Y-16008984D02*
X11672325Y-15808984D01*
X11672325Y-15999460D02*
X11653277Y-16008984D01*
X11653277Y-16008984D02*
X11615182Y-16008984D01*
X11615182Y-16008984D02*
X11596134Y-15999460D01*
X11596134Y-15999460D02*
X11586611Y-15989936D01*
X11586611Y-15989936D02*
X11577087Y-15970888D01*
X11577087Y-15970888D02*
X11577087Y-15913746D01*
X11577087Y-15913746D02*
X11586611Y-15894698D01*
X11586611Y-15894698D02*
X11596134Y-15885174D01*
X11596134Y-15885174D02*
X11615182Y-15875650D01*
X11615182Y-15875650D02*
X11653277Y-15875650D01*
X11653277Y-15875650D02*
X11672325Y-15885174D01*
X11748515Y-16085174D02*
X11758039Y-16075650D01*
X11758039Y-16075650D02*
X11777087Y-16047079D01*
X11777087Y-16047079D02*
X11786611Y-16028031D01*
X11786611Y-16028031D02*
X11796134Y-15999460D01*
X11796134Y-15999460D02*
X11805658Y-15951841D01*
X11805658Y-15951841D02*
X11805658Y-15913746D01*
X11805658Y-15913746D02*
X11796134Y-15866127D01*
X11796134Y-15866127D02*
X11786611Y-15837555D01*
X11786611Y-15837555D02*
X11777087Y-15818508D01*
X11777087Y-15818508D02*
X11758039Y-15789936D01*
X11758039Y-15789936D02*
X11748515Y-15780412D01*
M02*
