%TF.GenerationSoftware,KiCad,Pcbnew,7.0.11+dfsg-1build4*%
%TF.CreationDate,2025-01-10T21:05:51-06:00*%
%TF.ProjectId,MCTheremin,4d435468-6572-4656-9d69-6e2e6b696361,rev?*%
%TF.SameCoordinates,Original*%
%TF.FileFunction,Soldermask,Top*%
%TF.FilePolarity,Negative*%
%FSLAX46Y46*%
G04 Gerber Fmt 4.6, Leading zero omitted, Abs format (unit mm)*
G04 Created by KiCad (PCBNEW 7.0.11+dfsg-1build4) date 2025-01-10 21:05:51*
%MOMM*%
%LPD*%
G01*
G04 APERTURE LIST*
%ADD10C,1.600000*%
%ADD11O,1.600000X1.600000*%
%ADD12C,3.000000*%
%ADD13R,3.000000X3.000000*%
%ADD14R,1.600000X1.600000*%
%ADD15R,3.500000X3.500000*%
%ADD16C,9.000000*%
%ADD17C,4.064000*%
%ADD18C,5.500000*%
%ADD19R,1.500000X1.500000*%
%ADD20C,1.500000*%
%ADD21C,1.800000*%
%ADD22C,2.500000*%
%ADD23C,2.000000*%
%ADD24R,1.800000X1.800000*%
%ADD25O,1.800000X1.800000*%
%ADD26O,1.500000X2.000000*%
%ADD27O,2.000000X1.500000*%
%ADD28C,2.800000*%
%ADD29O,1.500000X1.500000*%
%ADD30O,1.700000X1.700000*%
%ADD31R,3.500000X1.700000*%
%ADD32R,1.700000X1.700000*%
%ADD33R,1.700000X3.500000*%
G04 APERTURE END LIST*
D10*
%TO.C,R13*%
X101030000Y-133313000D03*
D11*
X93410000Y-133313000D03*
%TD*%
D10*
%TO.C,R12*%
X80070000Y-131203000D03*
D11*
X87690000Y-131203000D03*
%TD*%
D10*
%TO.C,R5*%
X69980000Y-129803000D03*
D11*
X77600000Y-129803000D03*
%TD*%
D12*
%TO.C,J10*%
X145330000Y-67393000D03*
D13*
X145330000Y-72473000D03*
%TD*%
%TO.C,J13*%
X56896000Y-62865000D03*
D12*
X56896000Y-67945000D03*
%TD*%
D13*
%TO.C,J5*%
X117683280Y-54762400D03*
D12*
X122763280Y-54762400D03*
%TD*%
D10*
%TO.C,C1*%
X119400000Y-100543000D03*
X124400000Y-100543000D03*
%TD*%
%TO.C,C3*%
X119350000Y-96473000D03*
X124350000Y-96473000D03*
%TD*%
D14*
%TO.C,C5*%
X66400000Y-138433000D03*
D10*
X66400000Y-140933000D03*
%TD*%
D14*
%TO.C,C6*%
X62380000Y-101753000D03*
D10*
X59880000Y-101753000D03*
%TD*%
%TO.C,C8*%
X114380000Y-62643000D03*
X119380000Y-62643000D03*
%TD*%
%TO.C,C9*%
X67870000Y-69593000D03*
X62870000Y-69593000D03*
%TD*%
D14*
%TO.C,C10*%
X72350000Y-138533000D03*
D10*
X72350000Y-141033000D03*
%TD*%
%TO.C,C11*%
X119560000Y-92023000D03*
X124560000Y-92023000D03*
%TD*%
D14*
%TO.C,C12*%
X69140000Y-85913000D03*
D10*
X69140000Y-83413000D03*
%TD*%
D14*
%TO.C,C13*%
X79900000Y-99023000D03*
D10*
X79900000Y-101523000D03*
%TD*%
%TO.C,C14*%
X104394000Y-133731000D03*
X109394000Y-133731000D03*
%TD*%
%TO.C,C15*%
X116372000Y-133731000D03*
X121372000Y-133731000D03*
%TD*%
%TO.C,C17*%
X67260000Y-73433000D03*
X67260000Y-78433000D03*
%TD*%
%TO.C,C18*%
X107750000Y-72603000D03*
X102750000Y-72603000D03*
%TD*%
D15*
%TO.C,J1*%
X60230000Y-137433000D03*
X57230000Y-132733000D03*
X63230000Y-132733000D03*
%TD*%
D16*
%TO.C,J7*%
X67741800Y-54825900D03*
%TD*%
%TO.C,J8*%
X134874000Y-54991000D03*
%TD*%
D17*
%TO.C,J11*%
X53594000Y-54864000D03*
%TD*%
%TO.C,J12*%
X145796000Y-54864000D03*
%TD*%
D18*
%TO.C,J14*%
X145796000Y-146050000D03*
%TD*%
%TO.C,J15*%
X53594000Y-146050000D03*
%TD*%
D19*
%TO.C,Q3*%
X128090000Y-115193000D03*
D20*
X128090000Y-117733000D03*
X128090000Y-120273000D03*
%TD*%
D10*
%TO.C,R2*%
X82810000Y-63483000D03*
D11*
X75190000Y-63483000D03*
%TD*%
D10*
%TO.C,R6*%
X71200000Y-88498000D03*
D11*
X71200000Y-96118000D03*
%TD*%
D10*
%TO.C,R7*%
X75110000Y-66993000D03*
D11*
X82730000Y-66993000D03*
%TD*%
D10*
%TO.C,R8*%
X129310000Y-65183000D03*
D11*
X121690000Y-65183000D03*
%TD*%
D10*
%TO.C,R9*%
X112014000Y-137287000D03*
D11*
X104394000Y-137287000D03*
%TD*%
D10*
%TO.C,R11*%
X123444000Y-137287000D03*
D11*
X115824000Y-137287000D03*
%TD*%
D10*
%TO.C,R14*%
X122060000Y-120173000D03*
D11*
X122060000Y-112553000D03*
%TD*%
D10*
%TO.C,R16*%
X122240000Y-130353000D03*
D11*
X122240000Y-122733000D03*
%TD*%
D10*
%TO.C,R18*%
X129040000Y-122773000D03*
D11*
X129040000Y-130393000D03*
%TD*%
D10*
%TO.C,R19*%
X146360000Y-107143000D03*
D11*
X138740000Y-107143000D03*
%TD*%
D21*
%TO.C,RV1*%
X98900000Y-147923000D03*
D22*
X101400000Y-144923000D03*
X96400000Y-144923000D03*
D21*
X96400000Y-147923000D03*
D22*
X91400000Y-144923000D03*
D21*
X93900000Y-147923000D03*
%TD*%
%TO.C,RV2*%
X83750000Y-147793000D03*
D22*
X86250000Y-144793000D03*
X81250000Y-144793000D03*
D21*
X81250000Y-147793000D03*
D22*
X76250000Y-144793000D03*
D21*
X78750000Y-147793000D03*
%TD*%
%TO.C,RV4*%
X67690000Y-147943000D03*
D22*
X70190000Y-144943000D03*
X65190000Y-144943000D03*
D21*
X65190000Y-147943000D03*
D22*
X60190000Y-144943000D03*
D21*
X62690000Y-147943000D03*
%TD*%
D23*
%TO.C,SW1*%
X112450000Y-140843000D03*
X112450000Y-147343000D03*
X107950000Y-140843000D03*
X107950000Y-147343000D03*
%TD*%
%TO.C,SW2*%
X121630000Y-140693000D03*
X121630000Y-147193000D03*
X117130000Y-140693000D03*
X117130000Y-147193000D03*
%TD*%
D14*
%TO.C,U1*%
X70688200Y-78689200D03*
D11*
X73228200Y-78689200D03*
X75768200Y-78689200D03*
X78308200Y-78689200D03*
X80848200Y-78689200D03*
X83388200Y-78689200D03*
X85928200Y-78689200D03*
X85928200Y-71069200D03*
X83388200Y-71069200D03*
X80848200Y-71069200D03*
X78308200Y-71069200D03*
X75768200Y-71069200D03*
X73228200Y-71069200D03*
X70688200Y-71069200D03*
%TD*%
D24*
%TO.C,U3*%
X69350000Y-134443000D03*
D25*
X71890000Y-134443000D03*
X74430000Y-134443000D03*
%TD*%
D14*
%TO.C,U4*%
X67640000Y-96933000D03*
D11*
X67640000Y-94393000D03*
X67640000Y-91853000D03*
X67640000Y-89313000D03*
X60020000Y-89313000D03*
X60020000Y-91853000D03*
X60020000Y-94393000D03*
X60020000Y-96933000D03*
%TD*%
D14*
%TO.C,U5*%
X67930000Y-101563000D03*
D11*
X67930000Y-104103000D03*
X67930000Y-106643000D03*
X67930000Y-109183000D03*
X75550000Y-109183000D03*
X75550000Y-106643000D03*
X75550000Y-104103000D03*
X75550000Y-101563000D03*
%TD*%
D10*
%TO.C,R20*%
X120740000Y-69353000D03*
D11*
X113120000Y-69353000D03*
%TD*%
D10*
%TO.C,R21*%
X120740000Y-72863000D03*
D11*
X113120000Y-72863000D03*
%TD*%
D10*
%TO.C,R22*%
X89560000Y-61583000D03*
D11*
X89560000Y-69203000D03*
%TD*%
D10*
%TO.C,R23*%
X89500000Y-59073000D03*
D11*
X89500000Y-51453000D03*
%TD*%
D13*
%TO.C,J6*%
X83370000Y-54203000D03*
D12*
X78290000Y-54203000D03*
%TD*%
D21*
%TO.C,RV5*%
X52900000Y-95073000D03*
D22*
X55900000Y-97573000D03*
X55900000Y-92573000D03*
D21*
X52900000Y-92573000D03*
D22*
X55900000Y-87573000D03*
D21*
X52900000Y-90073000D03*
%TD*%
D14*
%TO.C,U6*%
X139080000Y-68873000D03*
D11*
X136540000Y-68873000D03*
X134000000Y-68873000D03*
X131460000Y-68873000D03*
X128920000Y-68873000D03*
X126380000Y-68873000D03*
X123840000Y-68873000D03*
X123840000Y-76493000D03*
X126380000Y-76493000D03*
X128920000Y-76493000D03*
X131460000Y-76493000D03*
X134000000Y-76493000D03*
X136540000Y-76493000D03*
X139080000Y-76493000D03*
%TD*%
D10*
%TO.C,C20*%
X139430000Y-79763000D03*
X134430000Y-79763000D03*
%TD*%
%TO.C,C21*%
X147930000Y-134673000D03*
X147930000Y-139673000D03*
%TD*%
%TO.C,C22*%
X56410000Y-139973000D03*
X51410000Y-139973000D03*
%TD*%
%TO.C,C23*%
X139660000Y-65373000D03*
X134660000Y-65373000D03*
%TD*%
%TO.C,C24*%
X78000000Y-59923000D03*
X83000000Y-59923000D03*
%TD*%
%TO.C,C25*%
X114360000Y-65983000D03*
X119360000Y-65983000D03*
%TD*%
%TO.C,C26*%
X85860000Y-59313000D03*
X85860000Y-64313000D03*
%TD*%
%TO.C,R1*%
X121630000Y-61443000D03*
D11*
X129250000Y-61443000D03*
%TD*%
D10*
%TO.C,C19*%
X127294000Y-133731000D03*
X132294000Y-133731000D03*
%TD*%
%TO.C,R27*%
X67440000Y-116293000D03*
D11*
X75060000Y-116293000D03*
%TD*%
D10*
%TO.C,C16*%
X73670000Y-126483000D03*
X68670000Y-126483000D03*
%TD*%
D24*
%TO.C,D3*%
X95530000Y-138633000D03*
D21*
X98070000Y-138633000D03*
%TD*%
D23*
%TO.C,SW4*%
X138866000Y-140693000D03*
X138866000Y-147193000D03*
X134366000Y-140693000D03*
X134366000Y-147193000D03*
%TD*%
D24*
%TO.C,D1*%
X82170000Y-138573000D03*
D21*
X79630000Y-138573000D03*
%TD*%
D10*
%TO.C,R28*%
X77610000Y-96273000D03*
D11*
X77610000Y-88653000D03*
%TD*%
D10*
%TO.C,R33*%
X138690000Y-95353000D03*
D11*
X138690000Y-102973000D03*
%TD*%
D10*
%TO.C,C7*%
X134810000Y-133663000D03*
X139810000Y-133663000D03*
%TD*%
D19*
%TO.C,Q1*%
X129830000Y-109523000D03*
D20*
X127290000Y-109523000D03*
X124750000Y-109523000D03*
%TD*%
D10*
%TO.C,R3*%
X79200000Y-105653000D03*
D11*
X79200000Y-113273000D03*
%TD*%
D26*
%TO.C,J3*%
X53130000Y-111123000D03*
D27*
X61030000Y-105923000D03*
X60030000Y-108523000D03*
X57530000Y-115923000D03*
D26*
X64430000Y-115423000D03*
%TD*%
D10*
%TO.C,C2*%
X115230000Y-109883000D03*
X120230000Y-109883000D03*
%TD*%
%TO.C,R29*%
X74390000Y-96163000D03*
D11*
X74390000Y-88543000D03*
%TD*%
D28*
%TO.C,J21*%
X136150000Y-112689000D03*
X136150000Y-120189000D03*
X136150000Y-127689000D03*
X133650000Y-115189000D03*
X133650000Y-125189000D03*
X146050000Y-115189000D03*
X146050000Y-125189000D03*
%TD*%
D10*
%TO.C,R31*%
X134874000Y-137287000D03*
D11*
X127254000Y-137287000D03*
%TD*%
D24*
%TO.C,D2*%
X90970000Y-138613000D03*
D21*
X88430000Y-138613000D03*
%TD*%
D25*
%TO.C,U7*%
X97825000Y-76913000D03*
D29*
X98125000Y-79943000D03*
X102975000Y-79943000D03*
D25*
X103275000Y-76913000D03*
D30*
X91660000Y-76783000D03*
D31*
X90760000Y-76783000D03*
D30*
X91660000Y-79323000D03*
D31*
X90760000Y-79323000D03*
D32*
X91660000Y-81863000D03*
D31*
X90760000Y-81863000D03*
D30*
X91660000Y-84403000D03*
D31*
X90760000Y-84403000D03*
D30*
X91660000Y-86943000D03*
D31*
X90760000Y-86943000D03*
D30*
X91660000Y-89483000D03*
D31*
X90760000Y-89483000D03*
D30*
X91660000Y-92023000D03*
D31*
X90760000Y-92023000D03*
D32*
X91660000Y-94563000D03*
D31*
X90760000Y-94563000D03*
D30*
X91660000Y-97103000D03*
D31*
X90760000Y-97103000D03*
D30*
X91660000Y-99643000D03*
D31*
X90760000Y-99643000D03*
D30*
X91660000Y-102183000D03*
D31*
X90760000Y-102183000D03*
D30*
X91660000Y-104723000D03*
D31*
X90760000Y-104723000D03*
D32*
X91660000Y-107263000D03*
D31*
X90760000Y-107263000D03*
D30*
X91660000Y-109803000D03*
D31*
X90760000Y-109803000D03*
D30*
X91660000Y-112343000D03*
D31*
X90760000Y-112343000D03*
D30*
X91660000Y-114883000D03*
D31*
X90760000Y-114883000D03*
D30*
X91660000Y-117423000D03*
D31*
X90760000Y-117423000D03*
D32*
X91660000Y-119963000D03*
D31*
X90760000Y-119963000D03*
D30*
X91660000Y-122503000D03*
D31*
X90760000Y-122503000D03*
D30*
X91660000Y-125043000D03*
D31*
X90760000Y-125043000D03*
D30*
X109440000Y-125043000D03*
D31*
X110340000Y-125043000D03*
D30*
X109440000Y-122503000D03*
D31*
X110340000Y-122503000D03*
D32*
X109440000Y-119963000D03*
D31*
X110340000Y-119963000D03*
D30*
X109440000Y-117423000D03*
D31*
X110340000Y-117423000D03*
D30*
X109440000Y-114883000D03*
D31*
X110340000Y-114883000D03*
D30*
X109440000Y-112343000D03*
D31*
X110340000Y-112343000D03*
D30*
X109440000Y-109803000D03*
D31*
X110340000Y-109803000D03*
D32*
X109440000Y-107263000D03*
D31*
X110340000Y-107263000D03*
D30*
X109440000Y-104723000D03*
D31*
X110340000Y-104723000D03*
D30*
X109440000Y-102183000D03*
D31*
X110340000Y-102183000D03*
D30*
X109440000Y-99643000D03*
D31*
X110340000Y-99643000D03*
D30*
X109440000Y-97103000D03*
D31*
X110340000Y-97103000D03*
D32*
X109440000Y-94563000D03*
D31*
X110340000Y-94563000D03*
D30*
X109440000Y-92023000D03*
D31*
X110340000Y-92023000D03*
D30*
X109440000Y-89483000D03*
D31*
X110340000Y-89483000D03*
D30*
X109440000Y-86943000D03*
D31*
X110340000Y-86943000D03*
D30*
X109440000Y-84403000D03*
D31*
X110340000Y-84403000D03*
D32*
X109440000Y-81863000D03*
D31*
X110340000Y-81863000D03*
D30*
X109440000Y-79323000D03*
D31*
X110340000Y-79323000D03*
D30*
X109440000Y-76783000D03*
D31*
X110340000Y-76783000D03*
D30*
X98010000Y-124813000D03*
D33*
X98010000Y-125713000D03*
D32*
X100550000Y-124813000D03*
D33*
X100550000Y-125713000D03*
D30*
X103090000Y-124813000D03*
D33*
X103090000Y-125713000D03*
%TD*%
D10*
%TO.C,C28*%
X117370000Y-104963000D03*
X122370000Y-104963000D03*
%TD*%
%TO.C,R34*%
X138720000Y-91783000D03*
D11*
X138720000Y-84163000D03*
%TD*%
D10*
%TO.C,C27*%
X67500000Y-119853000D03*
X72500000Y-119853000D03*
%TD*%
%TO.C,R32*%
X144930000Y-137193000D03*
D11*
X137310000Y-137193000D03*
%TD*%
D10*
%TO.C,R24*%
X118460000Y-87183000D03*
D11*
X118460000Y-79563000D03*
%TD*%
D26*
%TO.C,J4*%
X52500000Y-78183000D03*
D27*
X60400000Y-72983000D03*
X59400000Y-75583000D03*
X56900000Y-82983000D03*
D26*
X63800000Y-82483000D03*
%TD*%
D10*
%TO.C,R30*%
X125800000Y-130353000D03*
D11*
X125800000Y-122733000D03*
%TD*%
D13*
%TO.C,J2*%
X145290000Y-91233000D03*
D12*
X145290000Y-86153000D03*
%TD*%
D10*
%TO.C,R26*%
X116600000Y-94393000D03*
D11*
X116600000Y-102013000D03*
%TD*%
D10*
%TO.C,R4*%
X82490000Y-119843000D03*
D11*
X74870000Y-119843000D03*
%TD*%
D10*
%TO.C,C29*%
X59910000Y-86063000D03*
X64910000Y-86063000D03*
%TD*%
%TO.C,R25*%
X67410000Y-113013000D03*
D11*
X75030000Y-113013000D03*
%TD*%
D10*
%TO.C,C4*%
X77570000Y-116253000D03*
X82570000Y-116253000D03*
%TD*%
D23*
%TO.C,SW3*%
X130484000Y-140693000D03*
X130484000Y-147193000D03*
X125984000Y-140693000D03*
X125984000Y-147193000D03*
%TD*%
D13*
%TO.C,J9*%
X145190000Y-102333000D03*
D12*
X145190000Y-97253000D03*
%TD*%
M02*
