M48
; DRILL file {KiCad 7.0.11+dfsg-1build4} date Fri 10 Jan 2025 09:05:48 PM CST
; FORMAT={-:-/ absolute / inch / decimal}
; #@! TF.CreationDate,2025-01-10T21:05:48-06:00
; #@! TF.GenerationSoftware,Kicad,Pcbnew,7.0.11+dfsg-1build4
; #@! TF.FileFunction,Plated,1,2,PTH
FMAT,2
INCH
; #@! TA.AperFunction,Plated,PTH,ViaDrill
T1C0.0157
; #@! TA.AperFunction,Plated,PTH,ComponentDrill
T2C0.0295
; #@! TA.AperFunction,Plated,PTH,ComponentDrill
T3C0.0315
; #@! TA.AperFunction,Plated,PTH,ComponentDrill
T4C0.0354
; #@! TA.AperFunction,Plated,PTH,ComponentDrill
T5C0.0394
; #@! TA.AperFunction,Plated,PTH,ComponentDrill
T6C0.0402
; #@! TA.AperFunction,Plated,PTH,ComponentDrill
T7C0.0433
; #@! TA.AperFunction,Plated,PTH,ComponentDrill
T8C0.0472
; #@! TA.AperFunction,Plated,PTH,ComponentDrill
T9C0.0598
; #@! TA.AperFunction,Plated,PTH,ComponentDrill
T10C0.0630
; #@! TA.AperFunction,Plated,PTH,ComponentDrill
T11C0.1200
; #@! TA.AperFunction,Plated,PTH,ComponentDrill
T12C0.1969
%
G90
G05
T1
X3.3083Y-5.5639
X3.3465Y-5.4816
X3.3496Y-5.5796
X3.387Y-5.484
X3.6043Y-5.0379
X3.6043Y-5.1241
X3.6587Y-5.4832
X3.6587Y-5.5753
X3.7173Y-5.0037
X3.7657Y-5.2895
X4.2402Y-5.119
X4.5516Y-5.1296
X4.7232Y-5.1525
X4.8299Y-4.2143
X4.8819Y-5.0903
X4.9094Y-4.0422
X4.9256Y-3.5446
X4.9866Y-4.2092
X5.0425Y-3.9848
X5.1343Y-3.5501
X5.6327Y-5.1922
X5.6335Y-5.0796
T3
X2.024Y-5.5107
X2.2209Y-5.5107
X2.3575Y-4.006
X2.3587Y-3.3883
X2.363Y-3.5163
X2.363Y-3.6163
X2.363Y-3.7163
X2.363Y-3.8163
X2.4559Y-4.006
X2.4752Y-2.7399
X2.5555Y-3.3883
X2.6142Y-5.4501
X2.6142Y-5.5485
X2.648Y-2.8911
X2.648Y-3.0879
X2.6539Y-4.4493
X2.6551Y-4.5785
X2.6575Y-4.7186
X2.663Y-3.5163
X2.663Y-3.6163
X2.663Y-3.7163
X2.663Y-3.8163
X2.672Y-2.7399
X2.6744Y-3.9985
X2.6744Y-4.0985
X2.6744Y-4.1985
X2.6744Y-4.2985
X2.7035Y-4.9796
X2.722Y-3.284
X2.722Y-3.3824
X2.7551Y-5.1104
X2.783Y-2.798
X2.783Y-3.098
X2.8031Y-3.4842
X2.8031Y-3.7842
X2.8484Y-5.4541
X2.8484Y-5.5525
X2.8543Y-4.7186
X2.883Y-2.798
X2.883Y-3.098
X2.9004Y-4.9796
X2.9287Y-3.4859
X2.9287Y-3.7859
X2.9476Y-4.7182
X2.9539Y-4.4493
X2.9551Y-4.5785
X2.9571Y-2.6375
X2.9602Y-2.4993
X2.9744Y-3.9985
X2.9744Y-4.0985
X2.9744Y-4.1985
X2.9744Y-4.2985
X2.983Y-2.798
X2.983Y-3.098
X3.0539Y-4.5769
X3.0551Y-5.1104
X3.0555Y-3.4903
X3.0555Y-3.7903
X3.0709Y-2.3592
X3.083Y-2.798
X3.083Y-3.098
X3.1181Y-4.1596
X3.1181Y-4.4596
X3.1457Y-3.8985
X3.1457Y-3.997
X3.1524Y-5.1655
X3.183Y-2.798
X3.183Y-3.098
X3.2476Y-4.7182
X3.2508Y-4.5769
X3.2571Y-2.6375
X3.2602Y-2.4993
X3.2677Y-2.3592
X3.283Y-2.798
X3.283Y-3.098
X3.3803Y-2.3352
X3.3803Y-2.532
X3.383Y-2.798
X3.383Y-3.098
X3.4524Y-5.1655
X3.5236Y-2.0257
X3.5236Y-2.3257
X3.526Y-2.4245
X3.526Y-2.7245
X3.6776Y-5.2485
X3.9776Y-5.2485
X4.0453Y-2.8584
X4.11Y-5.265
X4.11Y-5.405
X4.2421Y-2.8584
X4.3069Y-5.265
X4.41Y-5.405
X4.4535Y-2.7304
X4.4535Y-2.8686
X4.5024Y-2.5978
X4.5031Y-2.4663
X4.5366Y-4.3261
X4.56Y-5.405
X4.5816Y-5.265
X4.5906Y-3.7163
X4.5906Y-4.0163
X4.6209Y-4.1324
X4.6638Y-3.1324
X4.6638Y-3.4324
X4.6988Y-3.7981
X4.6992Y-2.5978
X4.7Y-2.4663
X4.7008Y-3.9584
X4.7071Y-3.623
X4.7335Y-4.3261
X4.7535Y-2.7304
X4.7535Y-2.8686
X4.7784Y-5.265
X4.7886Y-2.419
X4.7909Y-2.5663
X4.8055Y-4.4312
X4.8055Y-4.7312
X4.8126Y-4.832
X4.8126Y-5.132
X4.8177Y-4.1324
X4.86Y-5.405
X4.8756Y-2.7115
X4.8756Y-3.0115
X4.8957Y-3.7981
X4.8976Y-3.9584
X4.9039Y-3.623
X4.9114Y-4.3119
X4.9528Y-4.832
X4.9528Y-5.132
X4.9756Y-2.7115
X4.9756Y-3.0115
X5.01Y-5.405
X5.0114Y-4.3119
X5.0116Y-5.265
X5.0429Y-4.5352
X5.0429Y-4.6352
X5.0429Y-4.7352
X5.0756Y-2.7115
X5.0756Y-3.0115
X5.0803Y-4.8336
X5.0803Y-5.1336
X5.0886Y-2.419
X5.0909Y-2.5663
X5.1114Y-4.3119
X5.1756Y-2.7115
X5.1756Y-3.0115
X5.2084Y-5.265
X5.2756Y-2.7115
X5.2756Y-3.0115
X5.2925Y-3.1403
X5.3016Y-2.5737
X5.3075Y-5.2623
X5.31Y-5.405
X5.3756Y-2.7115
X5.3756Y-3.0115
X5.4059Y-5.4013
X5.4602Y-3.7541
X5.4602Y-4.0541
X5.4614Y-3.3135
X5.4614Y-3.6135
X5.4622Y-4.2182
X5.4756Y-2.7115
X5.4756Y-3.0115
X5.4894Y-3.1403
X5.4984Y-2.5737
X5.5043Y-5.2623
X5.7059Y-5.4013
X5.7622Y-4.2182
X5.824Y-5.3021
X5.824Y-5.4989
T4
X3.135Y-5.4556
X3.235Y-5.4556
X3.4815Y-5.4572
X3.5815Y-5.4572
X3.761Y-5.458
X3.861Y-5.458
T5
X2.0827Y-3.5462
X2.0827Y-3.6446
X2.0827Y-3.743
X2.4681Y-5.8245
X2.5665Y-5.8245
X2.665Y-5.8245
X2.7303Y-5.293
X2.8303Y-5.293
X2.9303Y-5.293
X3.1004Y-5.8186
X3.1988Y-5.8186
X3.2972Y-5.8186
X3.6969Y-5.8237
X3.7953Y-5.8237
X3.8937Y-5.8237
T6
X3.6087Y-3.023
X3.6087Y-3.123
X3.6087Y-3.223
X3.6087Y-3.323
X3.6087Y-3.423
X3.6087Y-3.523
X3.6087Y-3.623
X3.6087Y-3.723
X3.6087Y-3.823
X3.6087Y-3.923
X3.6087Y-4.023
X3.6087Y-4.123
X3.6087Y-4.223
X3.6087Y-4.323
X3.6087Y-4.423
X3.6087Y-4.523
X3.6087Y-4.623
X3.6087Y-4.723
X3.6087Y-4.823
X3.6087Y-4.923
X3.8587Y-4.9139
X3.9587Y-4.9139
X4.0587Y-4.9139
X4.3087Y-3.023
X4.3087Y-3.123
X4.3087Y-3.223
X4.3087Y-3.323
X4.3087Y-3.423
X4.3087Y-3.523
X4.3087Y-3.623
X4.3087Y-3.723
X4.3087Y-3.823
X4.3087Y-3.923
X4.3087Y-4.023
X4.3087Y-4.123
X4.3087Y-4.223
X4.3087Y-4.323
X4.3087Y-4.423
X4.3087Y-4.523
X4.3087Y-4.623
X4.3087Y-4.723
X4.3087Y-4.823
X4.3087Y-4.923
T7
X4.25Y-5.545
X4.25Y-5.8009
X4.4272Y-5.545
X4.4272Y-5.8009
X4.6114Y-5.5391
X4.6114Y-5.795
X4.7886Y-5.5391
X4.7886Y-5.795
X4.96Y-5.5391
X4.96Y-5.795
X5.1372Y-5.5391
X5.1372Y-5.795
X5.29Y-5.5391
X5.29Y-5.795
X5.4672Y-5.5391
X5.4672Y-5.795
T8
X2.2008Y-3.4478
X2.2008Y-3.6446
X2.2008Y-3.8415
X2.3697Y-5.7064
X2.5665Y-5.7064
X2.7634Y-5.7064
X3.002Y-5.7005
X3.1988Y-5.7005
X3.3957Y-5.7005
X3.5984Y-5.7056
X3.7953Y-5.7056
X3.9921Y-5.7056
T9
X2.24Y-2.475
X2.24Y-2.675
X3.0823Y-2.134
X3.2823Y-2.134
X4.6332Y-2.156
X4.8332Y-2.156
X5.7161Y-3.8289
X5.7161Y-4.0289
X5.7201Y-3.3919
X5.7201Y-3.5919
X5.7217Y-2.6533
X5.7217Y-2.8533
T10
X5.2618Y-4.535
X5.2618Y-4.9287
X5.3602Y-4.4366
X5.3602Y-4.7319
X5.3602Y-5.0271
X5.75Y-4.535
X5.75Y-4.9287
T11
X2.11Y-2.16
X2.11Y-5.75
X5.74Y-2.16
X5.74Y-5.75
T12
X2.667Y-2.1585
X5.31Y-2.165
T2
G00X2.0669Y-3.0928
M15
G01X2.0669Y-3.0633
M16
G05
G00X2.0917Y-4.3897
M15
G01X2.0917Y-4.3602
M16
G05
G00X2.2254Y-3.267
M15
G01X2.2549Y-3.267
M16
G05
G00X2.2502Y-4.5639
M15
G01X2.2797Y-4.5639
M16
G05
G00X2.3632Y-2.8733
M15
G01X2.3927Y-2.8733
M16
G05
G00X2.388Y-4.1702
M15
G01X2.4175Y-4.1702
M16
G05
T5
G00X2.2531Y-5.1863
M15
G01X2.2531Y-5.2651
M16
G05
G00X2.3287Y-2.9757
M15
G01X2.3484Y-2.9757
M16
G05
G00X2.3535Y-4.2726
M15
G01X2.3732Y-4.2726
M16
G05
G00X2.3319Y-5.4107
M15
G01X2.4106Y-5.4107
M16
G05
G00X2.4894Y-5.1863
M15
G01X2.4894Y-5.2651
M16
G05
G00X2.5118Y-3.2572
M15
G01X2.5118Y-3.2375
M16
G05
G00X2.5366Y-4.5541
M15
G01X2.5366Y-4.5344
M16
G05
M30
