%TF.GenerationSoftware,KiCad,Pcbnew,7.0.11+dfsg-1build4*%
%TF.CreationDate,2025-01-11T13:27:16-06:00*%
%TF.ProjectId,InductorAntenna,496e6475-6374-46f7-9241-6e74656e6e61,rev?*%
%TF.SameCoordinates,Original*%
%TF.FileFunction,Legend,Top*%
%TF.FilePolarity,Positive*%
%FSLAX46Y46*%
G04 Gerber Fmt 4.6, Leading zero omitted, Abs format (unit mm)*
G04 Created by KiCad (PCBNEW 7.0.11+dfsg-1build4) date 2025-01-11 13:27:16*
%MOMM*%
%LPD*%
G01*
G04 APERTURE LIST*
%ADD10C,0.100000*%
%ADD11C,0.150000*%
%ADD12C,0.120000*%
G04 APERTURE END LIST*
D10*
X64872419Y-73746115D02*
X63872419Y-73746115D01*
X64872419Y-73269925D02*
X63872419Y-73269925D01*
X63872419Y-73269925D02*
X64872419Y-72698497D01*
X64872419Y-72698497D02*
X63872419Y-72698497D01*
X64872419Y-72222306D02*
X63872419Y-72222306D01*
X63872419Y-72222306D02*
X63872419Y-71984211D01*
X63872419Y-71984211D02*
X63920038Y-71841354D01*
X63920038Y-71841354D02*
X64015276Y-71746116D01*
X64015276Y-71746116D02*
X64110514Y-71698497D01*
X64110514Y-71698497D02*
X64300990Y-71650878D01*
X64300990Y-71650878D02*
X64443847Y-71650878D01*
X64443847Y-71650878D02*
X64634323Y-71698497D01*
X64634323Y-71698497D02*
X64729561Y-71746116D01*
X64729561Y-71746116D02*
X64824800Y-71841354D01*
X64824800Y-71841354D02*
X64872419Y-71984211D01*
X64872419Y-71984211D02*
X64872419Y-72222306D01*
X63872419Y-71222306D02*
X64681942Y-71222306D01*
X64681942Y-71222306D02*
X64777180Y-71174687D01*
X64777180Y-71174687D02*
X64824800Y-71127068D01*
X64824800Y-71127068D02*
X64872419Y-71031830D01*
X64872419Y-71031830D02*
X64872419Y-70841354D01*
X64872419Y-70841354D02*
X64824800Y-70746116D01*
X64824800Y-70746116D02*
X64777180Y-70698497D01*
X64777180Y-70698497D02*
X64681942Y-70650878D01*
X64681942Y-70650878D02*
X63872419Y-70650878D01*
X64777180Y-69603259D02*
X64824800Y-69650878D01*
X64824800Y-69650878D02*
X64872419Y-69793735D01*
X64872419Y-69793735D02*
X64872419Y-69888973D01*
X64872419Y-69888973D02*
X64824800Y-70031830D01*
X64824800Y-70031830D02*
X64729561Y-70127068D01*
X64729561Y-70127068D02*
X64634323Y-70174687D01*
X64634323Y-70174687D02*
X64443847Y-70222306D01*
X64443847Y-70222306D02*
X64300990Y-70222306D01*
X64300990Y-70222306D02*
X64110514Y-70174687D01*
X64110514Y-70174687D02*
X64015276Y-70127068D01*
X64015276Y-70127068D02*
X63920038Y-70031830D01*
X63920038Y-70031830D02*
X63872419Y-69888973D01*
X63872419Y-69888973D02*
X63872419Y-69793735D01*
X63872419Y-69793735D02*
X63920038Y-69650878D01*
X63920038Y-69650878D02*
X63967657Y-69603259D01*
X63872419Y-69317544D02*
X63872419Y-68746116D01*
X64872419Y-69031830D02*
X63872419Y-69031830D01*
X63872419Y-68222306D02*
X63872419Y-68031830D01*
X63872419Y-68031830D02*
X63920038Y-67936592D01*
X63920038Y-67936592D02*
X64015276Y-67841354D01*
X64015276Y-67841354D02*
X64205752Y-67793735D01*
X64205752Y-67793735D02*
X64539085Y-67793735D01*
X64539085Y-67793735D02*
X64729561Y-67841354D01*
X64729561Y-67841354D02*
X64824800Y-67936592D01*
X64824800Y-67936592D02*
X64872419Y-68031830D01*
X64872419Y-68031830D02*
X64872419Y-68222306D01*
X64872419Y-68222306D02*
X64824800Y-68317544D01*
X64824800Y-68317544D02*
X64729561Y-68412782D01*
X64729561Y-68412782D02*
X64539085Y-68460401D01*
X64539085Y-68460401D02*
X64205752Y-68460401D01*
X64205752Y-68460401D02*
X64015276Y-68412782D01*
X64015276Y-68412782D02*
X63920038Y-68317544D01*
X63920038Y-68317544D02*
X63872419Y-68222306D01*
X64872419Y-66793735D02*
X64396228Y-67127068D01*
X64872419Y-67365163D02*
X63872419Y-67365163D01*
X63872419Y-67365163D02*
X63872419Y-66984211D01*
X63872419Y-66984211D02*
X63920038Y-66888973D01*
X63920038Y-66888973D02*
X63967657Y-66841354D01*
X63967657Y-66841354D02*
X64062895Y-66793735D01*
X64062895Y-66793735D02*
X64205752Y-66793735D01*
X64205752Y-66793735D02*
X64300990Y-66841354D01*
X64300990Y-66841354D02*
X64348609Y-66888973D01*
X64348609Y-66888973D02*
X64396228Y-66984211D01*
X64396228Y-66984211D02*
X64396228Y-67365163D01*
X64712419Y-88746115D02*
X63712419Y-88746115D01*
X63712419Y-88746115D02*
X64426704Y-88412782D01*
X64426704Y-88412782D02*
X63712419Y-88079449D01*
X63712419Y-88079449D02*
X64712419Y-88079449D01*
X63712419Y-87412782D02*
X63712419Y-87222306D01*
X63712419Y-87222306D02*
X63760038Y-87127068D01*
X63760038Y-87127068D02*
X63855276Y-87031830D01*
X63855276Y-87031830D02*
X64045752Y-86984211D01*
X64045752Y-86984211D02*
X64379085Y-86984211D01*
X64379085Y-86984211D02*
X64569561Y-87031830D01*
X64569561Y-87031830D02*
X64664800Y-87127068D01*
X64664800Y-87127068D02*
X64712419Y-87222306D01*
X64712419Y-87222306D02*
X64712419Y-87412782D01*
X64712419Y-87412782D02*
X64664800Y-87508020D01*
X64664800Y-87508020D02*
X64569561Y-87603258D01*
X64569561Y-87603258D02*
X64379085Y-87650877D01*
X64379085Y-87650877D02*
X64045752Y-87650877D01*
X64045752Y-87650877D02*
X63855276Y-87603258D01*
X63855276Y-87603258D02*
X63760038Y-87508020D01*
X63760038Y-87508020D02*
X63712419Y-87412782D01*
X63712419Y-86555639D02*
X64521942Y-86555639D01*
X64521942Y-86555639D02*
X64617180Y-86508020D01*
X64617180Y-86508020D02*
X64664800Y-86460401D01*
X64664800Y-86460401D02*
X64712419Y-86365163D01*
X64712419Y-86365163D02*
X64712419Y-86174687D01*
X64712419Y-86174687D02*
X64664800Y-86079449D01*
X64664800Y-86079449D02*
X64617180Y-86031830D01*
X64617180Y-86031830D02*
X64521942Y-85984211D01*
X64521942Y-85984211D02*
X63712419Y-85984211D01*
X64712419Y-85508020D02*
X63712419Y-85508020D01*
X63712419Y-85508020D02*
X64712419Y-84936592D01*
X64712419Y-84936592D02*
X63712419Y-84936592D01*
X63712419Y-84603258D02*
X63712419Y-84031830D01*
X64712419Y-84317544D02*
X63712419Y-84317544D01*
X64712419Y-83698496D02*
X63712419Y-83698496D01*
X64712419Y-83222306D02*
X63712419Y-83222306D01*
X63712419Y-83222306D02*
X64712419Y-82650878D01*
X64712419Y-82650878D02*
X63712419Y-82650878D01*
X63760038Y-81650878D02*
X63712419Y-81746116D01*
X63712419Y-81746116D02*
X63712419Y-81888973D01*
X63712419Y-81888973D02*
X63760038Y-82031830D01*
X63760038Y-82031830D02*
X63855276Y-82127068D01*
X63855276Y-82127068D02*
X63950514Y-82174687D01*
X63950514Y-82174687D02*
X64140990Y-82222306D01*
X64140990Y-82222306D02*
X64283847Y-82222306D01*
X64283847Y-82222306D02*
X64474323Y-82174687D01*
X64474323Y-82174687D02*
X64569561Y-82127068D01*
X64569561Y-82127068D02*
X64664800Y-82031830D01*
X64664800Y-82031830D02*
X64712419Y-81888973D01*
X64712419Y-81888973D02*
X64712419Y-81793735D01*
X64712419Y-81793735D02*
X64664800Y-81650878D01*
X64664800Y-81650878D02*
X64617180Y-81603259D01*
X64617180Y-81603259D02*
X64283847Y-81603259D01*
X64283847Y-81603259D02*
X64283847Y-81793735D01*
X66322419Y-88746115D02*
X65322419Y-88746115D01*
X65798609Y-88746115D02*
X65798609Y-88174687D01*
X66322419Y-88174687D02*
X65322419Y-88174687D01*
X65322419Y-87508020D02*
X65322419Y-87317544D01*
X65322419Y-87317544D02*
X65370038Y-87222306D01*
X65370038Y-87222306D02*
X65465276Y-87127068D01*
X65465276Y-87127068D02*
X65655752Y-87079449D01*
X65655752Y-87079449D02*
X65989085Y-87079449D01*
X65989085Y-87079449D02*
X66179561Y-87127068D01*
X66179561Y-87127068D02*
X66274800Y-87222306D01*
X66274800Y-87222306D02*
X66322419Y-87317544D01*
X66322419Y-87317544D02*
X66322419Y-87508020D01*
X66322419Y-87508020D02*
X66274800Y-87603258D01*
X66274800Y-87603258D02*
X66179561Y-87698496D01*
X66179561Y-87698496D02*
X65989085Y-87746115D01*
X65989085Y-87746115D02*
X65655752Y-87746115D01*
X65655752Y-87746115D02*
X65465276Y-87698496D01*
X65465276Y-87698496D02*
X65370038Y-87603258D01*
X65370038Y-87603258D02*
X65322419Y-87508020D01*
X66322419Y-86174687D02*
X66322419Y-86650877D01*
X66322419Y-86650877D02*
X65322419Y-86650877D01*
X65798609Y-85841353D02*
X65798609Y-85508020D01*
X66322419Y-85365163D02*
X66322419Y-85841353D01*
X66322419Y-85841353D02*
X65322419Y-85841353D01*
X65322419Y-85841353D02*
X65322419Y-85365163D01*
X64212419Y-109796115D02*
X63212419Y-109796115D01*
X63212419Y-109796115D02*
X63926704Y-109462782D01*
X63926704Y-109462782D02*
X63212419Y-109129449D01*
X63212419Y-109129449D02*
X64212419Y-109129449D01*
X63212419Y-108462782D02*
X63212419Y-108272306D01*
X63212419Y-108272306D02*
X63260038Y-108177068D01*
X63260038Y-108177068D02*
X63355276Y-108081830D01*
X63355276Y-108081830D02*
X63545752Y-108034211D01*
X63545752Y-108034211D02*
X63879085Y-108034211D01*
X63879085Y-108034211D02*
X64069561Y-108081830D01*
X64069561Y-108081830D02*
X64164800Y-108177068D01*
X64164800Y-108177068D02*
X64212419Y-108272306D01*
X64212419Y-108272306D02*
X64212419Y-108462782D01*
X64212419Y-108462782D02*
X64164800Y-108558020D01*
X64164800Y-108558020D02*
X64069561Y-108653258D01*
X64069561Y-108653258D02*
X63879085Y-108700877D01*
X63879085Y-108700877D02*
X63545752Y-108700877D01*
X63545752Y-108700877D02*
X63355276Y-108653258D01*
X63355276Y-108653258D02*
X63260038Y-108558020D01*
X63260038Y-108558020D02*
X63212419Y-108462782D01*
X63212419Y-107605639D02*
X64021942Y-107605639D01*
X64021942Y-107605639D02*
X64117180Y-107558020D01*
X64117180Y-107558020D02*
X64164800Y-107510401D01*
X64164800Y-107510401D02*
X64212419Y-107415163D01*
X64212419Y-107415163D02*
X64212419Y-107224687D01*
X64212419Y-107224687D02*
X64164800Y-107129449D01*
X64164800Y-107129449D02*
X64117180Y-107081830D01*
X64117180Y-107081830D02*
X64021942Y-107034211D01*
X64021942Y-107034211D02*
X63212419Y-107034211D01*
X64212419Y-106558020D02*
X63212419Y-106558020D01*
X63212419Y-106558020D02*
X64212419Y-105986592D01*
X64212419Y-105986592D02*
X63212419Y-105986592D01*
X63212419Y-105653258D02*
X63212419Y-105081830D01*
X64212419Y-105367544D02*
X63212419Y-105367544D01*
X64212419Y-104748496D02*
X63212419Y-104748496D01*
X64212419Y-104272306D02*
X63212419Y-104272306D01*
X63212419Y-104272306D02*
X64212419Y-103700878D01*
X64212419Y-103700878D02*
X63212419Y-103700878D01*
X63260038Y-102700878D02*
X63212419Y-102796116D01*
X63212419Y-102796116D02*
X63212419Y-102938973D01*
X63212419Y-102938973D02*
X63260038Y-103081830D01*
X63260038Y-103081830D02*
X63355276Y-103177068D01*
X63355276Y-103177068D02*
X63450514Y-103224687D01*
X63450514Y-103224687D02*
X63640990Y-103272306D01*
X63640990Y-103272306D02*
X63783847Y-103272306D01*
X63783847Y-103272306D02*
X63974323Y-103224687D01*
X63974323Y-103224687D02*
X64069561Y-103177068D01*
X64069561Y-103177068D02*
X64164800Y-103081830D01*
X64164800Y-103081830D02*
X64212419Y-102938973D01*
X64212419Y-102938973D02*
X64212419Y-102843735D01*
X64212419Y-102843735D02*
X64164800Y-102700878D01*
X64164800Y-102700878D02*
X64117180Y-102653259D01*
X64117180Y-102653259D02*
X63783847Y-102653259D01*
X63783847Y-102653259D02*
X63783847Y-102843735D01*
X65822419Y-109796115D02*
X64822419Y-109796115D01*
X65298609Y-109796115D02*
X65298609Y-109224687D01*
X65822419Y-109224687D02*
X64822419Y-109224687D01*
X64822419Y-108558020D02*
X64822419Y-108367544D01*
X64822419Y-108367544D02*
X64870038Y-108272306D01*
X64870038Y-108272306D02*
X64965276Y-108177068D01*
X64965276Y-108177068D02*
X65155752Y-108129449D01*
X65155752Y-108129449D02*
X65489085Y-108129449D01*
X65489085Y-108129449D02*
X65679561Y-108177068D01*
X65679561Y-108177068D02*
X65774800Y-108272306D01*
X65774800Y-108272306D02*
X65822419Y-108367544D01*
X65822419Y-108367544D02*
X65822419Y-108558020D01*
X65822419Y-108558020D02*
X65774800Y-108653258D01*
X65774800Y-108653258D02*
X65679561Y-108748496D01*
X65679561Y-108748496D02*
X65489085Y-108796115D01*
X65489085Y-108796115D02*
X65155752Y-108796115D01*
X65155752Y-108796115D02*
X64965276Y-108748496D01*
X64965276Y-108748496D02*
X64870038Y-108653258D01*
X64870038Y-108653258D02*
X64822419Y-108558020D01*
X65822419Y-107224687D02*
X65822419Y-107700877D01*
X65822419Y-107700877D02*
X64822419Y-107700877D01*
X65298609Y-106891353D02*
X65298609Y-106558020D01*
X65822419Y-106415163D02*
X65822419Y-106891353D01*
X65822419Y-106891353D02*
X64822419Y-106891353D01*
X64822419Y-106891353D02*
X64822419Y-106415163D01*
X64262419Y-131646115D02*
X63262419Y-131646115D01*
X63262419Y-131646115D02*
X63976704Y-131312782D01*
X63976704Y-131312782D02*
X63262419Y-130979449D01*
X63262419Y-130979449D02*
X64262419Y-130979449D01*
X63262419Y-130312782D02*
X63262419Y-130122306D01*
X63262419Y-130122306D02*
X63310038Y-130027068D01*
X63310038Y-130027068D02*
X63405276Y-129931830D01*
X63405276Y-129931830D02*
X63595752Y-129884211D01*
X63595752Y-129884211D02*
X63929085Y-129884211D01*
X63929085Y-129884211D02*
X64119561Y-129931830D01*
X64119561Y-129931830D02*
X64214800Y-130027068D01*
X64214800Y-130027068D02*
X64262419Y-130122306D01*
X64262419Y-130122306D02*
X64262419Y-130312782D01*
X64262419Y-130312782D02*
X64214800Y-130408020D01*
X64214800Y-130408020D02*
X64119561Y-130503258D01*
X64119561Y-130503258D02*
X63929085Y-130550877D01*
X63929085Y-130550877D02*
X63595752Y-130550877D01*
X63595752Y-130550877D02*
X63405276Y-130503258D01*
X63405276Y-130503258D02*
X63310038Y-130408020D01*
X63310038Y-130408020D02*
X63262419Y-130312782D01*
X63262419Y-129455639D02*
X64071942Y-129455639D01*
X64071942Y-129455639D02*
X64167180Y-129408020D01*
X64167180Y-129408020D02*
X64214800Y-129360401D01*
X64214800Y-129360401D02*
X64262419Y-129265163D01*
X64262419Y-129265163D02*
X64262419Y-129074687D01*
X64262419Y-129074687D02*
X64214800Y-128979449D01*
X64214800Y-128979449D02*
X64167180Y-128931830D01*
X64167180Y-128931830D02*
X64071942Y-128884211D01*
X64071942Y-128884211D02*
X63262419Y-128884211D01*
X64262419Y-128408020D02*
X63262419Y-128408020D01*
X63262419Y-128408020D02*
X64262419Y-127836592D01*
X64262419Y-127836592D02*
X63262419Y-127836592D01*
X63262419Y-127503258D02*
X63262419Y-126931830D01*
X64262419Y-127217544D02*
X63262419Y-127217544D01*
X64262419Y-126598496D02*
X63262419Y-126598496D01*
X64262419Y-126122306D02*
X63262419Y-126122306D01*
X63262419Y-126122306D02*
X64262419Y-125550878D01*
X64262419Y-125550878D02*
X63262419Y-125550878D01*
X63310038Y-124550878D02*
X63262419Y-124646116D01*
X63262419Y-124646116D02*
X63262419Y-124788973D01*
X63262419Y-124788973D02*
X63310038Y-124931830D01*
X63310038Y-124931830D02*
X63405276Y-125027068D01*
X63405276Y-125027068D02*
X63500514Y-125074687D01*
X63500514Y-125074687D02*
X63690990Y-125122306D01*
X63690990Y-125122306D02*
X63833847Y-125122306D01*
X63833847Y-125122306D02*
X64024323Y-125074687D01*
X64024323Y-125074687D02*
X64119561Y-125027068D01*
X64119561Y-125027068D02*
X64214800Y-124931830D01*
X64214800Y-124931830D02*
X64262419Y-124788973D01*
X64262419Y-124788973D02*
X64262419Y-124693735D01*
X64262419Y-124693735D02*
X64214800Y-124550878D01*
X64214800Y-124550878D02*
X64167180Y-124503259D01*
X64167180Y-124503259D02*
X63833847Y-124503259D01*
X63833847Y-124503259D02*
X63833847Y-124693735D01*
X65872419Y-131646115D02*
X64872419Y-131646115D01*
X65348609Y-131646115D02*
X65348609Y-131074687D01*
X65872419Y-131074687D02*
X64872419Y-131074687D01*
X64872419Y-130408020D02*
X64872419Y-130217544D01*
X64872419Y-130217544D02*
X64920038Y-130122306D01*
X64920038Y-130122306D02*
X65015276Y-130027068D01*
X65015276Y-130027068D02*
X65205752Y-129979449D01*
X65205752Y-129979449D02*
X65539085Y-129979449D01*
X65539085Y-129979449D02*
X65729561Y-130027068D01*
X65729561Y-130027068D02*
X65824800Y-130122306D01*
X65824800Y-130122306D02*
X65872419Y-130217544D01*
X65872419Y-130217544D02*
X65872419Y-130408020D01*
X65872419Y-130408020D02*
X65824800Y-130503258D01*
X65824800Y-130503258D02*
X65729561Y-130598496D01*
X65729561Y-130598496D02*
X65539085Y-130646115D01*
X65539085Y-130646115D02*
X65205752Y-130646115D01*
X65205752Y-130646115D02*
X65015276Y-130598496D01*
X65015276Y-130598496D02*
X64920038Y-130503258D01*
X64920038Y-130503258D02*
X64872419Y-130408020D01*
X65872419Y-129074687D02*
X65872419Y-129550877D01*
X65872419Y-129550877D02*
X64872419Y-129550877D01*
X65348609Y-128741353D02*
X65348609Y-128408020D01*
X65872419Y-128265163D02*
X65872419Y-128741353D01*
X65872419Y-128741353D02*
X64872419Y-128741353D01*
X64872419Y-128741353D02*
X64872419Y-128265163D01*
X64622419Y-145096115D02*
X63622419Y-145096115D01*
X64622419Y-144619925D02*
X63622419Y-144619925D01*
X63622419Y-144619925D02*
X64622419Y-144048497D01*
X64622419Y-144048497D02*
X63622419Y-144048497D01*
X64622419Y-143572306D02*
X63622419Y-143572306D01*
X63622419Y-143572306D02*
X63622419Y-143334211D01*
X63622419Y-143334211D02*
X63670038Y-143191354D01*
X63670038Y-143191354D02*
X63765276Y-143096116D01*
X63765276Y-143096116D02*
X63860514Y-143048497D01*
X63860514Y-143048497D02*
X64050990Y-143000878D01*
X64050990Y-143000878D02*
X64193847Y-143000878D01*
X64193847Y-143000878D02*
X64384323Y-143048497D01*
X64384323Y-143048497D02*
X64479561Y-143096116D01*
X64479561Y-143096116D02*
X64574800Y-143191354D01*
X64574800Y-143191354D02*
X64622419Y-143334211D01*
X64622419Y-143334211D02*
X64622419Y-143572306D01*
X63622419Y-142572306D02*
X64431942Y-142572306D01*
X64431942Y-142572306D02*
X64527180Y-142524687D01*
X64527180Y-142524687D02*
X64574800Y-142477068D01*
X64574800Y-142477068D02*
X64622419Y-142381830D01*
X64622419Y-142381830D02*
X64622419Y-142191354D01*
X64622419Y-142191354D02*
X64574800Y-142096116D01*
X64574800Y-142096116D02*
X64527180Y-142048497D01*
X64527180Y-142048497D02*
X64431942Y-142000878D01*
X64431942Y-142000878D02*
X63622419Y-142000878D01*
X64527180Y-140953259D02*
X64574800Y-141000878D01*
X64574800Y-141000878D02*
X64622419Y-141143735D01*
X64622419Y-141143735D02*
X64622419Y-141238973D01*
X64622419Y-141238973D02*
X64574800Y-141381830D01*
X64574800Y-141381830D02*
X64479561Y-141477068D01*
X64479561Y-141477068D02*
X64384323Y-141524687D01*
X64384323Y-141524687D02*
X64193847Y-141572306D01*
X64193847Y-141572306D02*
X64050990Y-141572306D01*
X64050990Y-141572306D02*
X63860514Y-141524687D01*
X63860514Y-141524687D02*
X63765276Y-141477068D01*
X63765276Y-141477068D02*
X63670038Y-141381830D01*
X63670038Y-141381830D02*
X63622419Y-141238973D01*
X63622419Y-141238973D02*
X63622419Y-141143735D01*
X63622419Y-141143735D02*
X63670038Y-141000878D01*
X63670038Y-141000878D02*
X63717657Y-140953259D01*
X63622419Y-140667544D02*
X63622419Y-140096116D01*
X64622419Y-140381830D02*
X63622419Y-140381830D01*
X63622419Y-139572306D02*
X63622419Y-139381830D01*
X63622419Y-139381830D02*
X63670038Y-139286592D01*
X63670038Y-139286592D02*
X63765276Y-139191354D01*
X63765276Y-139191354D02*
X63955752Y-139143735D01*
X63955752Y-139143735D02*
X64289085Y-139143735D01*
X64289085Y-139143735D02*
X64479561Y-139191354D01*
X64479561Y-139191354D02*
X64574800Y-139286592D01*
X64574800Y-139286592D02*
X64622419Y-139381830D01*
X64622419Y-139381830D02*
X64622419Y-139572306D01*
X64622419Y-139572306D02*
X64574800Y-139667544D01*
X64574800Y-139667544D02*
X64479561Y-139762782D01*
X64479561Y-139762782D02*
X64289085Y-139810401D01*
X64289085Y-139810401D02*
X63955752Y-139810401D01*
X63955752Y-139810401D02*
X63765276Y-139762782D01*
X63765276Y-139762782D02*
X63670038Y-139667544D01*
X63670038Y-139667544D02*
X63622419Y-139572306D01*
X64622419Y-138143735D02*
X64146228Y-138477068D01*
X64622419Y-138715163D02*
X63622419Y-138715163D01*
X63622419Y-138715163D02*
X63622419Y-138334211D01*
X63622419Y-138334211D02*
X63670038Y-138238973D01*
X63670038Y-138238973D02*
X63717657Y-138191354D01*
X63717657Y-138191354D02*
X63812895Y-138143735D01*
X63812895Y-138143735D02*
X63955752Y-138143735D01*
X63955752Y-138143735D02*
X64050990Y-138191354D01*
X64050990Y-138191354D02*
X64098609Y-138238973D01*
X64098609Y-138238973D02*
X64146228Y-138334211D01*
X64146228Y-138334211D02*
X64146228Y-138715163D01*
X64872419Y-60796115D02*
X63872419Y-60796115D01*
X64872419Y-60319925D02*
X63872419Y-60319925D01*
X63872419Y-60319925D02*
X64872419Y-59748497D01*
X64872419Y-59748497D02*
X63872419Y-59748497D01*
X64872419Y-59272306D02*
X63872419Y-59272306D01*
X63872419Y-59272306D02*
X63872419Y-59034211D01*
X63872419Y-59034211D02*
X63920038Y-58891354D01*
X63920038Y-58891354D02*
X64015276Y-58796116D01*
X64015276Y-58796116D02*
X64110514Y-58748497D01*
X64110514Y-58748497D02*
X64300990Y-58700878D01*
X64300990Y-58700878D02*
X64443847Y-58700878D01*
X64443847Y-58700878D02*
X64634323Y-58748497D01*
X64634323Y-58748497D02*
X64729561Y-58796116D01*
X64729561Y-58796116D02*
X64824800Y-58891354D01*
X64824800Y-58891354D02*
X64872419Y-59034211D01*
X64872419Y-59034211D02*
X64872419Y-59272306D01*
X63872419Y-58272306D02*
X64681942Y-58272306D01*
X64681942Y-58272306D02*
X64777180Y-58224687D01*
X64777180Y-58224687D02*
X64824800Y-58177068D01*
X64824800Y-58177068D02*
X64872419Y-58081830D01*
X64872419Y-58081830D02*
X64872419Y-57891354D01*
X64872419Y-57891354D02*
X64824800Y-57796116D01*
X64824800Y-57796116D02*
X64777180Y-57748497D01*
X64777180Y-57748497D02*
X64681942Y-57700878D01*
X64681942Y-57700878D02*
X63872419Y-57700878D01*
X64777180Y-56653259D02*
X64824800Y-56700878D01*
X64824800Y-56700878D02*
X64872419Y-56843735D01*
X64872419Y-56843735D02*
X64872419Y-56938973D01*
X64872419Y-56938973D02*
X64824800Y-57081830D01*
X64824800Y-57081830D02*
X64729561Y-57177068D01*
X64729561Y-57177068D02*
X64634323Y-57224687D01*
X64634323Y-57224687D02*
X64443847Y-57272306D01*
X64443847Y-57272306D02*
X64300990Y-57272306D01*
X64300990Y-57272306D02*
X64110514Y-57224687D01*
X64110514Y-57224687D02*
X64015276Y-57177068D01*
X64015276Y-57177068D02*
X63920038Y-57081830D01*
X63920038Y-57081830D02*
X63872419Y-56938973D01*
X63872419Y-56938973D02*
X63872419Y-56843735D01*
X63872419Y-56843735D02*
X63920038Y-56700878D01*
X63920038Y-56700878D02*
X63967657Y-56653259D01*
X63872419Y-56367544D02*
X63872419Y-55796116D01*
X64872419Y-56081830D02*
X63872419Y-56081830D01*
X63872419Y-55272306D02*
X63872419Y-55081830D01*
X63872419Y-55081830D02*
X63920038Y-54986592D01*
X63920038Y-54986592D02*
X64015276Y-54891354D01*
X64015276Y-54891354D02*
X64205752Y-54843735D01*
X64205752Y-54843735D02*
X64539085Y-54843735D01*
X64539085Y-54843735D02*
X64729561Y-54891354D01*
X64729561Y-54891354D02*
X64824800Y-54986592D01*
X64824800Y-54986592D02*
X64872419Y-55081830D01*
X64872419Y-55081830D02*
X64872419Y-55272306D01*
X64872419Y-55272306D02*
X64824800Y-55367544D01*
X64824800Y-55367544D02*
X64729561Y-55462782D01*
X64729561Y-55462782D02*
X64539085Y-55510401D01*
X64539085Y-55510401D02*
X64205752Y-55510401D01*
X64205752Y-55510401D02*
X64015276Y-55462782D01*
X64015276Y-55462782D02*
X63920038Y-55367544D01*
X63920038Y-55367544D02*
X63872419Y-55272306D01*
X64872419Y-53843735D02*
X64396228Y-54177068D01*
X64872419Y-54415163D02*
X63872419Y-54415163D01*
X63872419Y-54415163D02*
X63872419Y-54034211D01*
X63872419Y-54034211D02*
X63920038Y-53938973D01*
X63920038Y-53938973D02*
X63967657Y-53891354D01*
X63967657Y-53891354D02*
X64062895Y-53843735D01*
X64062895Y-53843735D02*
X64205752Y-53843735D01*
X64205752Y-53843735D02*
X64300990Y-53891354D01*
X64300990Y-53891354D02*
X64348609Y-53938973D01*
X64348609Y-53938973D02*
X64396228Y-54034211D01*
X64396228Y-54034211D02*
X64396228Y-54415163D01*
D11*
X56238095Y-121954819D02*
X56238095Y-120954819D01*
X56238095Y-121431009D02*
X56809523Y-121431009D01*
X56809523Y-121954819D02*
X56809523Y-120954819D01*
X57190476Y-120954819D02*
X57809523Y-120954819D01*
X57809523Y-120954819D02*
X57476190Y-121335771D01*
X57476190Y-121335771D02*
X57619047Y-121335771D01*
X57619047Y-121335771D02*
X57714285Y-121383390D01*
X57714285Y-121383390D02*
X57761904Y-121431009D01*
X57761904Y-121431009D02*
X57809523Y-121526247D01*
X57809523Y-121526247D02*
X57809523Y-121764342D01*
X57809523Y-121764342D02*
X57761904Y-121859580D01*
X57761904Y-121859580D02*
X57714285Y-121907200D01*
X57714285Y-121907200D02*
X57619047Y-121954819D01*
X57619047Y-121954819D02*
X57333333Y-121954819D01*
X57333333Y-121954819D02*
X57238095Y-121907200D01*
X57238095Y-121907200D02*
X57190476Y-121859580D01*
X56238095Y-99954819D02*
X56238095Y-98954819D01*
X56238095Y-99431009D02*
X56809523Y-99431009D01*
X56809523Y-99954819D02*
X56809523Y-98954819D01*
X57238095Y-99050057D02*
X57285714Y-99002438D01*
X57285714Y-99002438D02*
X57380952Y-98954819D01*
X57380952Y-98954819D02*
X57619047Y-98954819D01*
X57619047Y-98954819D02*
X57714285Y-99002438D01*
X57714285Y-99002438D02*
X57761904Y-99050057D01*
X57761904Y-99050057D02*
X57809523Y-99145295D01*
X57809523Y-99145295D02*
X57809523Y-99240533D01*
X57809523Y-99240533D02*
X57761904Y-99383390D01*
X57761904Y-99383390D02*
X57190476Y-99954819D01*
X57190476Y-99954819D02*
X57809523Y-99954819D01*
X56238095Y-78954819D02*
X56238095Y-77954819D01*
X56238095Y-78431009D02*
X56809523Y-78431009D01*
X56809523Y-78954819D02*
X56809523Y-77954819D01*
X57809523Y-78954819D02*
X57238095Y-78954819D01*
X57523809Y-78954819D02*
X57523809Y-77954819D01*
X57523809Y-77954819D02*
X57428571Y-78097676D01*
X57428571Y-78097676D02*
X57333333Y-78192914D01*
X57333333Y-78192914D02*
X57238095Y-78240533D01*
X56666666Y-134954819D02*
X56666666Y-135669104D01*
X56666666Y-135669104D02*
X56619047Y-135811961D01*
X56619047Y-135811961D02*
X56523809Y-135907200D01*
X56523809Y-135907200D02*
X56380952Y-135954819D01*
X56380952Y-135954819D02*
X56285714Y-135954819D01*
X57047619Y-134954819D02*
X57666666Y-134954819D01*
X57666666Y-134954819D02*
X57333333Y-135335771D01*
X57333333Y-135335771D02*
X57476190Y-135335771D01*
X57476190Y-135335771D02*
X57571428Y-135383390D01*
X57571428Y-135383390D02*
X57619047Y-135431009D01*
X57619047Y-135431009D02*
X57666666Y-135526247D01*
X57666666Y-135526247D02*
X57666666Y-135764342D01*
X57666666Y-135764342D02*
X57619047Y-135859580D01*
X57619047Y-135859580D02*
X57571428Y-135907200D01*
X57571428Y-135907200D02*
X57476190Y-135954819D01*
X57476190Y-135954819D02*
X57190476Y-135954819D01*
X57190476Y-135954819D02*
X57095238Y-135907200D01*
X57095238Y-135907200D02*
X57047619Y-135859580D01*
X56666666Y-50954819D02*
X56666666Y-51669104D01*
X56666666Y-51669104D02*
X56619047Y-51811961D01*
X56619047Y-51811961D02*
X56523809Y-51907200D01*
X56523809Y-51907200D02*
X56380952Y-51954819D01*
X56380952Y-51954819D02*
X56285714Y-51954819D01*
X57666666Y-51954819D02*
X57095238Y-51954819D01*
X57380952Y-51954819D02*
X57380952Y-50954819D01*
X57380952Y-50954819D02*
X57285714Y-51097676D01*
X57285714Y-51097676D02*
X57190476Y-51192914D01*
X57190476Y-51192914D02*
X57095238Y-51240533D01*
X56666666Y-63904819D02*
X56666666Y-64619104D01*
X56666666Y-64619104D02*
X56619047Y-64761961D01*
X56619047Y-64761961D02*
X56523809Y-64857200D01*
X56523809Y-64857200D02*
X56380952Y-64904819D01*
X56380952Y-64904819D02*
X56285714Y-64904819D01*
X57095238Y-64000057D02*
X57142857Y-63952438D01*
X57142857Y-63952438D02*
X57238095Y-63904819D01*
X57238095Y-63904819D02*
X57476190Y-63904819D01*
X57476190Y-63904819D02*
X57571428Y-63952438D01*
X57571428Y-63952438D02*
X57619047Y-64000057D01*
X57619047Y-64000057D02*
X57666666Y-64095295D01*
X57666666Y-64095295D02*
X57666666Y-64190533D01*
X57666666Y-64190533D02*
X57619047Y-64333390D01*
X57619047Y-64333390D02*
X57047619Y-64904819D01*
X57047619Y-64904819D02*
X57666666Y-64904819D01*
D12*
%TO.C,H3*%
X62500000Y-128000000D02*
G75*
G03*
X51500000Y-128000000I-5500000J0D01*
G01*
X51500000Y-128000000D02*
G75*
G03*
X62500000Y-128000000I5500000J0D01*
G01*
%TO.C,H2*%
X62500000Y-106000000D02*
G75*
G03*
X51500000Y-106000000I-5500000J0D01*
G01*
X51500000Y-106000000D02*
G75*
G03*
X62500000Y-106000000I5500000J0D01*
G01*
%TO.C,H1*%
X62500000Y-85000000D02*
G75*
G03*
X51500000Y-85000000I-5500000J0D01*
G01*
X51500000Y-85000000D02*
G75*
G03*
X62500000Y-85000000I5500000J0D01*
G01*
%TO.C,J3*%
X62500000Y-142000000D02*
G75*
G03*
X51500000Y-142000000I-5500000J0D01*
G01*
X51500000Y-142000000D02*
G75*
G03*
X62500000Y-142000000I5500000J0D01*
G01*
%TO.C,J1*%
X62500000Y-58000000D02*
G75*
G03*
X51500000Y-58000000I-5500000J0D01*
G01*
X51500000Y-58000000D02*
G75*
G03*
X62500000Y-58000000I5500000J0D01*
G01*
%TO.C,J2*%
X62500000Y-71000000D02*
G75*
G03*
X51500000Y-71000000I-5500000J0D01*
G01*
X51500000Y-71000000D02*
G75*
G03*
X62500000Y-71000000I5500000J0D01*
G01*
%TD*%
M02*
