%TF.GenerationSoftware,KiCad,Pcbnew,7.0.11+dfsg-1build4*%
%TF.CreationDate,2025-01-11T13:27:16-06:00*%
%TF.ProjectId,InductorAntenna,496e6475-6374-46f7-9241-6e74656e6e61,rev?*%
%TF.SameCoordinates,Original*%
%TF.FileFunction,Copper,L2,Bot*%
%TF.FilePolarity,Positive*%
%FSLAX46Y46*%
G04 Gerber Fmt 4.6, Leading zero omitted, Abs format (unit mm)*
G04 Created by KiCad (PCBNEW 7.0.11+dfsg-1build4) date 2025-01-11 13:27:16*
%MOMM*%
%LPD*%
G01*
G04 APERTURE LIST*
%TA.AperFunction,WasherPad*%
%ADD10C,10.160000*%
%TD*%
%TA.AperFunction,ComponentPad*%
%ADD11C,10.160000*%
%TD*%
%TA.AperFunction,ViaPad*%
%ADD12C,0.600000*%
%TD*%
%TA.AperFunction,Conductor*%
%ADD13C,0.500000*%
%TD*%
G04 APERTURE END LIST*
D10*
%TO.P,H3,*%
%TO.N,*%
X57000000Y-128000000D03*
%TD*%
%TO.P,H2,*%
%TO.N,*%
X57000000Y-106000000D03*
%TD*%
%TO.P,H1,*%
%TO.N,*%
X57000000Y-85000000D03*
%TD*%
D11*
%TO.P,J3,1,Pin_1*%
%TO.N,Net-(J1-Pin_1)*%
X57000000Y-142000000D03*
%TD*%
%TO.P,J1,1,Pin_1*%
%TO.N,Net-(J1-Pin_1)*%
X57000000Y-58000000D03*
%TD*%
%TO.P,J2,1,Pin_1*%
%TO.N,Net-(J1-Pin_1)*%
X57000000Y-71000000D03*
%TD*%
D12*
%TO.N,Net-(J1-Pin_1)*%
X106000000Y-99000000D03*
%TD*%
D13*
%TO.N,Net-(J1-Pin_1)*%
X139000000Y-139000000D02*
X139000000Y-61000000D01*
X102000000Y-111000000D02*
X111000000Y-111000000D01*
X75000000Y-138000000D02*
X138000000Y-138000000D01*
X137000000Y-63000000D02*
X75000000Y-63000000D01*
X110000000Y-110000000D02*
X110000000Y-90000000D01*
X76000000Y-137000000D02*
X137000000Y-137000000D01*
X64000000Y-149000000D02*
X149000000Y-149000000D01*
X136000000Y-64000000D02*
X76000000Y-64000000D01*
X135000000Y-65000000D02*
X77000000Y-65000000D01*
X74000000Y-62000000D02*
X74000000Y-139000000D01*
X78000000Y-66000000D02*
X78000000Y-135000000D01*
X122000000Y-78000000D02*
X90000000Y-78000000D01*
X66000000Y-147000000D02*
X147000000Y-147000000D01*
X134000000Y-134000000D02*
X134000000Y-66000000D01*
X133000000Y-67000000D02*
X79000000Y-67000000D01*
X132000000Y-68000000D02*
X80000000Y-68000000D01*
X142000000Y-58000000D02*
X70000000Y-58000000D01*
X138000000Y-62000000D02*
X74000000Y-62000000D01*
X124000000Y-76000000D02*
X88000000Y-76000000D01*
X124000000Y-124000000D02*
X124000000Y-76000000D01*
X147000000Y-147000000D02*
X147000000Y-53000000D01*
X81000000Y-69000000D02*
X81000000Y-132000000D01*
X61000000Y-51000000D02*
X57000000Y-55000000D01*
X138000000Y-138000000D02*
X138000000Y-62000000D01*
X134000000Y-66000000D02*
X78000000Y-66000000D01*
X131000000Y-69000000D02*
X81000000Y-69000000D01*
X82000000Y-131000000D02*
X131000000Y-131000000D01*
X130000000Y-130000000D02*
X130000000Y-70000000D01*
X83000000Y-130000000D02*
X130000000Y-130000000D01*
X145000000Y-55000000D02*
X67000000Y-55000000D01*
X128000000Y-72000000D02*
X84000000Y-72000000D01*
X129000000Y-71000000D02*
X83000000Y-71000000D01*
X141000000Y-59000000D02*
X71000000Y-59000000D01*
X127000000Y-73000000D02*
X85000000Y-73000000D01*
X137000000Y-137000000D02*
X137000000Y-63000000D01*
X76000000Y-64000000D02*
X76000000Y-137000000D01*
X131000000Y-131000000D02*
X131000000Y-69000000D01*
X87000000Y-75000000D02*
X87000000Y-126000000D01*
X102000000Y-90000000D02*
X102000000Y-111000000D01*
X86000000Y-127000000D02*
X127000000Y-127000000D01*
X86000000Y-74000000D02*
X86000000Y-127000000D01*
X126000000Y-74000000D02*
X86000000Y-74000000D01*
X126000000Y-126000000D02*
X126000000Y-74000000D01*
X103000000Y-91000000D02*
X103000000Y-110000000D01*
X74000000Y-139000000D02*
X139000000Y-139000000D01*
X87000000Y-126000000D02*
X126000000Y-126000000D01*
X125000000Y-75000000D02*
X87000000Y-75000000D01*
X79000000Y-134000000D02*
X134000000Y-134000000D01*
X125000000Y-125000000D02*
X125000000Y-75000000D01*
X88000000Y-125000000D02*
X125000000Y-125000000D01*
X129000000Y-129000000D02*
X129000000Y-71000000D01*
X88000000Y-76000000D02*
X88000000Y-125000000D01*
X92000000Y-80000000D02*
X92000000Y-121000000D01*
X84000000Y-72000000D02*
X84000000Y-129000000D01*
X108000000Y-108000000D02*
X108000000Y-92000000D01*
X89000000Y-77000000D02*
X89000000Y-124000000D01*
X123000000Y-77000000D02*
X89000000Y-77000000D01*
X67000000Y-146000000D02*
X146000000Y-146000000D01*
X135000000Y-135000000D02*
X135000000Y-65000000D01*
X123000000Y-123000000D02*
X123000000Y-77000000D01*
X106000000Y-99000000D02*
X106000000Y-108000000D01*
X79000000Y-67000000D02*
X79000000Y-134000000D01*
X98000000Y-115000000D02*
X115000000Y-115000000D01*
X136000000Y-136000000D02*
X136000000Y-64000000D01*
X98000000Y-86000000D02*
X98000000Y-115000000D01*
X115000000Y-85000000D02*
X97000000Y-85000000D01*
X122000000Y-122000000D02*
X122000000Y-78000000D01*
X114000000Y-86000000D02*
X98000000Y-86000000D01*
X114000000Y-114000000D02*
X114000000Y-86000000D01*
X80000000Y-68000000D02*
X80000000Y-133000000D01*
X100000000Y-113000000D02*
X113000000Y-113000000D01*
X101000000Y-89000000D02*
X101000000Y-112000000D01*
X75000000Y-63000000D02*
X75000000Y-138000000D01*
X118000000Y-118000000D02*
X118000000Y-82000000D01*
X146000000Y-146000000D02*
X146000000Y-54000000D01*
X93000000Y-81000000D02*
X93000000Y-120000000D01*
X92000000Y-121000000D02*
X121000000Y-121000000D01*
X90000000Y-78000000D02*
X90000000Y-123000000D01*
X67000000Y-55000000D02*
X67000000Y-146000000D01*
X111000000Y-111000000D02*
X111000000Y-89000000D01*
X108000000Y-92000000D02*
X104000000Y-92000000D01*
X132000000Y-132000000D02*
X132000000Y-68000000D01*
X142000000Y-142000000D02*
X142000000Y-58000000D01*
X90000000Y-123000000D02*
X123000000Y-123000000D01*
X119000000Y-119000000D02*
X119000000Y-81000000D01*
X101000000Y-112000000D02*
X112000000Y-112000000D01*
X127000000Y-127000000D02*
X127000000Y-73000000D01*
X112000000Y-88000000D02*
X100000000Y-88000000D01*
X95000000Y-118000000D02*
X118000000Y-118000000D01*
X94000000Y-82000000D02*
X94000000Y-119000000D01*
X77000000Y-136000000D02*
X136000000Y-136000000D01*
X80000000Y-133000000D02*
X133000000Y-133000000D01*
X106000000Y-108000000D02*
X108000000Y-108000000D01*
X78000000Y-135000000D02*
X135000000Y-135000000D01*
X113000000Y-113000000D02*
X113000000Y-87000000D01*
X148000000Y-52000000D02*
X64000000Y-52000000D01*
X83000000Y-71000000D02*
X83000000Y-130000000D01*
X116000000Y-84000000D02*
X96000000Y-84000000D01*
X109000000Y-109000000D02*
X109000000Y-91000000D01*
X141000000Y-141000000D02*
X141000000Y-59000000D01*
X99000000Y-87000000D02*
X99000000Y-114000000D01*
X110000000Y-90000000D02*
X102000000Y-90000000D01*
X100000000Y-88000000D02*
X100000000Y-113000000D01*
X104000000Y-92000000D02*
X104000000Y-109000000D01*
X109000000Y-91000000D02*
X103000000Y-91000000D01*
X113000000Y-87000000D02*
X99000000Y-87000000D01*
X82000000Y-70000000D02*
X82000000Y-131000000D01*
X95000000Y-83000000D02*
X95000000Y-118000000D01*
X93000000Y-120000000D02*
X120000000Y-120000000D01*
X99000000Y-114000000D02*
X114000000Y-114000000D01*
X77000000Y-65000000D02*
X77000000Y-136000000D01*
X96000000Y-117000000D02*
X117000000Y-117000000D01*
X119000000Y-81000000D02*
X93000000Y-81000000D01*
X133000000Y-133000000D02*
X133000000Y-67000000D01*
X103000000Y-110000000D02*
X110000000Y-110000000D01*
X97000000Y-85000000D02*
X97000000Y-116000000D01*
X81000000Y-132000000D02*
X132000000Y-132000000D01*
X71000000Y-142000000D02*
X142000000Y-142000000D01*
X104000000Y-109000000D02*
X109000000Y-109000000D01*
X115000000Y-115000000D02*
X115000000Y-85000000D01*
X97000000Y-116000000D02*
X116000000Y-116000000D01*
X118000000Y-82000000D02*
X94000000Y-82000000D01*
X85000000Y-128000000D02*
X128000000Y-128000000D01*
X143000000Y-57000000D02*
X69000000Y-57000000D01*
X85000000Y-73000000D02*
X85000000Y-128000000D01*
X112000000Y-112000000D02*
X112000000Y-88000000D01*
X116000000Y-116000000D02*
X116000000Y-84000000D01*
X96000000Y-84000000D02*
X96000000Y-117000000D01*
X117000000Y-117000000D02*
X117000000Y-83000000D01*
X140000000Y-140000000D02*
X140000000Y-60000000D01*
X91000000Y-79000000D02*
X91000000Y-122000000D01*
X117000000Y-83000000D02*
X95000000Y-83000000D01*
X130000000Y-70000000D02*
X82000000Y-70000000D01*
X65000000Y-148000000D02*
X148000000Y-148000000D01*
X94000000Y-119000000D02*
X119000000Y-119000000D01*
X70000000Y-58000000D02*
X70000000Y-143000000D01*
X128000000Y-128000000D02*
X128000000Y-72000000D01*
X149000000Y-149000000D02*
X149000000Y-51000000D01*
X111000000Y-89000000D02*
X101000000Y-89000000D01*
X143000000Y-143000000D02*
X143000000Y-57000000D01*
X120000000Y-120000000D02*
X120000000Y-80000000D01*
X120000000Y-80000000D02*
X92000000Y-80000000D01*
X84000000Y-129000000D02*
X129000000Y-129000000D01*
X91000000Y-122000000D02*
X122000000Y-122000000D01*
X89000000Y-124000000D02*
X124000000Y-124000000D01*
X72000000Y-60000000D02*
X72000000Y-141000000D01*
X121000000Y-79000000D02*
X91000000Y-79000000D01*
X121000000Y-121000000D02*
X121000000Y-79000000D01*
X139000000Y-61000000D02*
X73000000Y-61000000D01*
X73000000Y-61000000D02*
X73000000Y-140000000D01*
X73000000Y-140000000D02*
X140000000Y-140000000D01*
X140000000Y-60000000D02*
X72000000Y-60000000D01*
X72000000Y-141000000D02*
X141000000Y-141000000D01*
X71000000Y-59000000D02*
X71000000Y-142000000D01*
X70000000Y-143000000D02*
X143000000Y-143000000D01*
X69000000Y-57000000D02*
X69000000Y-144000000D01*
X69000000Y-144000000D02*
X144000000Y-144000000D01*
X144000000Y-144000000D02*
X144000000Y-56000000D01*
X144000000Y-56000000D02*
X68000000Y-56000000D01*
X68000000Y-56000000D02*
X68000000Y-145000000D01*
X68000000Y-145000000D02*
X145000000Y-145000000D01*
X145000000Y-145000000D02*
X145000000Y-55000000D01*
X146000000Y-54000000D02*
X66000000Y-54000000D01*
X66000000Y-54000000D02*
X66000000Y-147000000D01*
X147000000Y-53000000D02*
X65000000Y-53000000D01*
X65000000Y-53000000D02*
X65000000Y-148000000D01*
X148000000Y-148000000D02*
X148000000Y-52000000D01*
X64000000Y-52000000D02*
X64000000Y-149000000D01*
X149000000Y-51000000D02*
X61000000Y-51000000D01*
X57000000Y-55000000D02*
X57000000Y-58000000D01*
%TD*%
M02*
