%TF.GenerationSoftware,KiCad,Pcbnew,7.0.11+dfsg-1build4*%
%TF.CreationDate,2025-01-11T13:27:20-06:00*%
%TF.ProjectId,InductorAntenna,496e6475-6374-46f7-9241-6e74656e6e61,rev?*%
%TF.SameCoordinates,Original*%
%TF.FileFunction,Drillmap*%
%TF.FilePolarity,Positive*%
%FSLAX45Y45*%
G04 Gerber Fmt 4.5, Leading zero omitted, Abs format (unit mm)*
G04 Created by KiCad (PCBNEW 7.0.11+dfsg-1build4) date 2025-01-11 13:27:20*
%MOMM*%
%LPD*%
G01*
G04 APERTURE LIST*
%ADD10C,0.050000*%
%ADD11C,0.200000*%
%ADD12C,0.700000*%
G04 APERTURE END LIST*
D10*
X15000000Y-5000000D02*
X15000000Y-15000000D01*
X5000000Y-5000000D02*
X15000000Y-5000000D01*
X15000000Y-15000000D02*
X5000000Y-15000000D01*
X5000000Y-15000000D02*
X5000000Y-5000000D01*
D11*
D12*
X5350000Y-8150000D02*
X6050000Y-8850000D01*
X6050000Y-8150000D02*
X5350000Y-8850000D01*
X5350000Y-10250000D02*
X6050000Y-10950000D01*
X6050000Y-10250000D02*
X5350000Y-10950000D01*
X5350000Y-12450000D02*
X6050000Y-13150000D01*
X6050000Y-12450000D02*
X5350000Y-13150000D01*
D11*
X5258277Y-15313984D02*
X5258277Y-15113984D01*
X5258277Y-15113984D02*
X5305896Y-15113984D01*
X5305896Y-15113984D02*
X5334467Y-15123508D01*
X5334467Y-15123508D02*
X5353515Y-15142555D01*
X5353515Y-15142555D02*
X5363039Y-15161603D01*
X5363039Y-15161603D02*
X5372563Y-15199698D01*
X5372563Y-15199698D02*
X5372563Y-15228269D01*
X5372563Y-15228269D02*
X5363039Y-15266365D01*
X5363039Y-15266365D02*
X5353515Y-15285412D01*
X5353515Y-15285412D02*
X5334467Y-15304460D01*
X5334467Y-15304460D02*
X5305896Y-15313984D01*
X5305896Y-15313984D02*
X5258277Y-15313984D01*
X5458277Y-15313984D02*
X5458277Y-15180650D01*
X5458277Y-15218746D02*
X5467801Y-15199698D01*
X5467801Y-15199698D02*
X5477324Y-15190174D01*
X5477324Y-15190174D02*
X5496372Y-15180650D01*
X5496372Y-15180650D02*
X5515420Y-15180650D01*
X5582086Y-15313984D02*
X5582086Y-15180650D01*
X5582086Y-15113984D02*
X5572563Y-15123508D01*
X5572563Y-15123508D02*
X5582086Y-15133031D01*
X5582086Y-15133031D02*
X5591610Y-15123508D01*
X5591610Y-15123508D02*
X5582086Y-15113984D01*
X5582086Y-15113984D02*
X5582086Y-15133031D01*
X5705896Y-15313984D02*
X5686848Y-15304460D01*
X5686848Y-15304460D02*
X5677324Y-15285412D01*
X5677324Y-15285412D02*
X5677324Y-15113984D01*
X5810658Y-15313984D02*
X5791610Y-15304460D01*
X5791610Y-15304460D02*
X5782086Y-15285412D01*
X5782086Y-15285412D02*
X5782086Y-15113984D01*
X6039229Y-15313984D02*
X6039229Y-15113984D01*
X6039229Y-15113984D02*
X6105896Y-15256841D01*
X6105896Y-15256841D02*
X6172562Y-15113984D01*
X6172562Y-15113984D02*
X6172562Y-15313984D01*
X6353515Y-15313984D02*
X6353515Y-15209222D01*
X6353515Y-15209222D02*
X6343991Y-15190174D01*
X6343991Y-15190174D02*
X6324943Y-15180650D01*
X6324943Y-15180650D02*
X6286848Y-15180650D01*
X6286848Y-15180650D02*
X6267801Y-15190174D01*
X6353515Y-15304460D02*
X6334467Y-15313984D01*
X6334467Y-15313984D02*
X6286848Y-15313984D01*
X6286848Y-15313984D02*
X6267801Y-15304460D01*
X6267801Y-15304460D02*
X6258277Y-15285412D01*
X6258277Y-15285412D02*
X6258277Y-15266365D01*
X6258277Y-15266365D02*
X6267801Y-15247317D01*
X6267801Y-15247317D02*
X6286848Y-15237793D01*
X6286848Y-15237793D02*
X6334467Y-15237793D01*
X6334467Y-15237793D02*
X6353515Y-15228269D01*
X6448753Y-15180650D02*
X6448753Y-15380650D01*
X6448753Y-15190174D02*
X6467801Y-15180650D01*
X6467801Y-15180650D02*
X6505896Y-15180650D01*
X6505896Y-15180650D02*
X6524943Y-15190174D01*
X6524943Y-15190174D02*
X6534467Y-15199698D01*
X6534467Y-15199698D02*
X6543991Y-15218746D01*
X6543991Y-15218746D02*
X6543991Y-15275888D01*
X6543991Y-15275888D02*
X6534467Y-15294936D01*
X6534467Y-15294936D02*
X6524943Y-15304460D01*
X6524943Y-15304460D02*
X6505896Y-15313984D01*
X6505896Y-15313984D02*
X6467801Y-15313984D01*
X6467801Y-15313984D02*
X6448753Y-15304460D01*
X6629705Y-15294936D02*
X6639229Y-15304460D01*
X6639229Y-15304460D02*
X6629705Y-15313984D01*
X6629705Y-15313984D02*
X6620182Y-15304460D01*
X6620182Y-15304460D02*
X6629705Y-15294936D01*
X6629705Y-15294936D02*
X6629705Y-15313984D01*
X6629705Y-15190174D02*
X6639229Y-15199698D01*
X6639229Y-15199698D02*
X6629705Y-15209222D01*
X6629705Y-15209222D02*
X6620182Y-15199698D01*
X6620182Y-15199698D02*
X6629705Y-15190174D01*
X6629705Y-15190174D02*
X6629705Y-15209222D01*
X4797500Y-15542500D02*
X4997500Y-15742500D01*
X4997500Y-15542500D02*
X4797500Y-15742500D01*
X5239229Y-15533984D02*
X5372563Y-15533984D01*
X5372563Y-15533984D02*
X5286848Y-15733984D01*
X5448753Y-15714936D02*
X5458277Y-15724460D01*
X5458277Y-15724460D02*
X5448753Y-15733984D01*
X5448753Y-15733984D02*
X5439229Y-15724460D01*
X5439229Y-15724460D02*
X5448753Y-15714936D01*
X5448753Y-15714936D02*
X5448753Y-15733984D01*
X5582086Y-15533984D02*
X5601134Y-15533984D01*
X5601134Y-15533984D02*
X5620182Y-15543508D01*
X5620182Y-15543508D02*
X5629705Y-15553031D01*
X5629705Y-15553031D02*
X5639229Y-15572079D01*
X5639229Y-15572079D02*
X5648753Y-15610174D01*
X5648753Y-15610174D02*
X5648753Y-15657793D01*
X5648753Y-15657793D02*
X5639229Y-15695888D01*
X5639229Y-15695888D02*
X5629705Y-15714936D01*
X5629705Y-15714936D02*
X5620182Y-15724460D01*
X5620182Y-15724460D02*
X5601134Y-15733984D01*
X5601134Y-15733984D02*
X5582086Y-15733984D01*
X5582086Y-15733984D02*
X5563039Y-15724460D01*
X5563039Y-15724460D02*
X5553515Y-15714936D01*
X5553515Y-15714936D02*
X5543991Y-15695888D01*
X5543991Y-15695888D02*
X5534467Y-15657793D01*
X5534467Y-15657793D02*
X5534467Y-15610174D01*
X5534467Y-15610174D02*
X5543991Y-15572079D01*
X5543991Y-15572079D02*
X5553515Y-15553031D01*
X5553515Y-15553031D02*
X5563039Y-15543508D01*
X5563039Y-15543508D02*
X5582086Y-15533984D01*
X5772562Y-15533984D02*
X5791610Y-15533984D01*
X5791610Y-15533984D02*
X5810658Y-15543508D01*
X5810658Y-15543508D02*
X5820182Y-15553031D01*
X5820182Y-15553031D02*
X5829705Y-15572079D01*
X5829705Y-15572079D02*
X5839229Y-15610174D01*
X5839229Y-15610174D02*
X5839229Y-15657793D01*
X5839229Y-15657793D02*
X5829705Y-15695888D01*
X5829705Y-15695888D02*
X5820182Y-15714936D01*
X5820182Y-15714936D02*
X5810658Y-15724460D01*
X5810658Y-15724460D02*
X5791610Y-15733984D01*
X5791610Y-15733984D02*
X5772562Y-15733984D01*
X5772562Y-15733984D02*
X5753515Y-15724460D01*
X5753515Y-15724460D02*
X5743991Y-15714936D01*
X5743991Y-15714936D02*
X5734467Y-15695888D01*
X5734467Y-15695888D02*
X5724943Y-15657793D01*
X5724943Y-15657793D02*
X5724943Y-15610174D01*
X5724943Y-15610174D02*
X5734467Y-15572079D01*
X5734467Y-15572079D02*
X5743991Y-15553031D01*
X5743991Y-15553031D02*
X5753515Y-15543508D01*
X5753515Y-15543508D02*
X5772562Y-15533984D01*
X5963039Y-15533984D02*
X5982086Y-15533984D01*
X5982086Y-15533984D02*
X6001134Y-15543508D01*
X6001134Y-15543508D02*
X6010658Y-15553031D01*
X6010658Y-15553031D02*
X6020182Y-15572079D01*
X6020182Y-15572079D02*
X6029705Y-15610174D01*
X6029705Y-15610174D02*
X6029705Y-15657793D01*
X6029705Y-15657793D02*
X6020182Y-15695888D01*
X6020182Y-15695888D02*
X6010658Y-15714936D01*
X6010658Y-15714936D02*
X6001134Y-15724460D01*
X6001134Y-15724460D02*
X5982086Y-15733984D01*
X5982086Y-15733984D02*
X5963039Y-15733984D01*
X5963039Y-15733984D02*
X5943991Y-15724460D01*
X5943991Y-15724460D02*
X5934467Y-15714936D01*
X5934467Y-15714936D02*
X5924943Y-15695888D01*
X5924943Y-15695888D02*
X5915420Y-15657793D01*
X5915420Y-15657793D02*
X5915420Y-15610174D01*
X5915420Y-15610174D02*
X5924943Y-15572079D01*
X5924943Y-15572079D02*
X5934467Y-15553031D01*
X5934467Y-15553031D02*
X5943991Y-15543508D01*
X5943991Y-15543508D02*
X5963039Y-15533984D01*
X6115420Y-15733984D02*
X6115420Y-15600650D01*
X6115420Y-15619698D02*
X6124943Y-15610174D01*
X6124943Y-15610174D02*
X6143991Y-15600650D01*
X6143991Y-15600650D02*
X6172563Y-15600650D01*
X6172563Y-15600650D02*
X6191610Y-15610174D01*
X6191610Y-15610174D02*
X6201134Y-15629222D01*
X6201134Y-15629222D02*
X6201134Y-15733984D01*
X6201134Y-15629222D02*
X6210658Y-15610174D01*
X6210658Y-15610174D02*
X6229705Y-15600650D01*
X6229705Y-15600650D02*
X6258277Y-15600650D01*
X6258277Y-15600650D02*
X6277324Y-15610174D01*
X6277324Y-15610174D02*
X6286848Y-15629222D01*
X6286848Y-15629222D02*
X6286848Y-15733984D01*
X6382086Y-15733984D02*
X6382086Y-15600650D01*
X6382086Y-15619698D02*
X6391610Y-15610174D01*
X6391610Y-15610174D02*
X6410658Y-15600650D01*
X6410658Y-15600650D02*
X6439229Y-15600650D01*
X6439229Y-15600650D02*
X6458277Y-15610174D01*
X6458277Y-15610174D02*
X6467801Y-15629222D01*
X6467801Y-15629222D02*
X6467801Y-15733984D01*
X6467801Y-15629222D02*
X6477324Y-15610174D01*
X6477324Y-15610174D02*
X6496372Y-15600650D01*
X6496372Y-15600650D02*
X6524943Y-15600650D01*
X6524943Y-15600650D02*
X6543991Y-15610174D01*
X6543991Y-15610174D02*
X6553515Y-15629222D01*
X6553515Y-15629222D02*
X6553515Y-15733984D01*
X6943991Y-15524460D02*
X6772563Y-15781603D01*
X7201134Y-15533984D02*
X7220182Y-15533984D01*
X7220182Y-15533984D02*
X7239229Y-15543508D01*
X7239229Y-15543508D02*
X7248753Y-15553031D01*
X7248753Y-15553031D02*
X7258277Y-15572079D01*
X7258277Y-15572079D02*
X7267801Y-15610174D01*
X7267801Y-15610174D02*
X7267801Y-15657793D01*
X7267801Y-15657793D02*
X7258277Y-15695888D01*
X7258277Y-15695888D02*
X7248753Y-15714936D01*
X7248753Y-15714936D02*
X7239229Y-15724460D01*
X7239229Y-15724460D02*
X7220182Y-15733984D01*
X7220182Y-15733984D02*
X7201134Y-15733984D01*
X7201134Y-15733984D02*
X7182086Y-15724460D01*
X7182086Y-15724460D02*
X7172563Y-15714936D01*
X7172563Y-15714936D02*
X7163039Y-15695888D01*
X7163039Y-15695888D02*
X7153515Y-15657793D01*
X7153515Y-15657793D02*
X7153515Y-15610174D01*
X7153515Y-15610174D02*
X7163039Y-15572079D01*
X7163039Y-15572079D02*
X7172563Y-15553031D01*
X7172563Y-15553031D02*
X7182086Y-15543508D01*
X7182086Y-15543508D02*
X7201134Y-15533984D01*
X7353515Y-15714936D02*
X7363039Y-15724460D01*
X7363039Y-15724460D02*
X7353515Y-15733984D01*
X7353515Y-15733984D02*
X7343991Y-15724460D01*
X7343991Y-15724460D02*
X7353515Y-15714936D01*
X7353515Y-15714936D02*
X7353515Y-15733984D01*
X7439229Y-15553031D02*
X7448753Y-15543508D01*
X7448753Y-15543508D02*
X7467801Y-15533984D01*
X7467801Y-15533984D02*
X7515420Y-15533984D01*
X7515420Y-15533984D02*
X7534467Y-15543508D01*
X7534467Y-15543508D02*
X7543991Y-15553031D01*
X7543991Y-15553031D02*
X7553515Y-15572079D01*
X7553515Y-15572079D02*
X7553515Y-15591127D01*
X7553515Y-15591127D02*
X7543991Y-15619698D01*
X7543991Y-15619698D02*
X7429706Y-15733984D01*
X7429706Y-15733984D02*
X7553515Y-15733984D01*
X7620182Y-15533984D02*
X7753515Y-15533984D01*
X7753515Y-15533984D02*
X7667801Y-15733984D01*
X7924944Y-15533984D02*
X7829706Y-15533984D01*
X7829706Y-15533984D02*
X7820182Y-15629222D01*
X7820182Y-15629222D02*
X7829706Y-15619698D01*
X7829706Y-15619698D02*
X7848753Y-15610174D01*
X7848753Y-15610174D02*
X7896372Y-15610174D01*
X7896372Y-15610174D02*
X7915420Y-15619698D01*
X7915420Y-15619698D02*
X7924944Y-15629222D01*
X7924944Y-15629222D02*
X7934467Y-15648269D01*
X7934467Y-15648269D02*
X7934467Y-15695888D01*
X7934467Y-15695888D02*
X7924944Y-15714936D01*
X7924944Y-15714936D02*
X7915420Y-15724460D01*
X7915420Y-15724460D02*
X7896372Y-15733984D01*
X7896372Y-15733984D02*
X7848753Y-15733984D01*
X7848753Y-15733984D02*
X7829706Y-15724460D01*
X7829706Y-15724460D02*
X7820182Y-15714936D01*
X8105896Y-15533984D02*
X8067801Y-15533984D01*
X8067801Y-15533984D02*
X8048753Y-15543508D01*
X8048753Y-15543508D02*
X8039229Y-15553031D01*
X8039229Y-15553031D02*
X8020182Y-15581603D01*
X8020182Y-15581603D02*
X8010658Y-15619698D01*
X8010658Y-15619698D02*
X8010658Y-15695888D01*
X8010658Y-15695888D02*
X8020182Y-15714936D01*
X8020182Y-15714936D02*
X8029706Y-15724460D01*
X8029706Y-15724460D02*
X8048753Y-15733984D01*
X8048753Y-15733984D02*
X8086848Y-15733984D01*
X8086848Y-15733984D02*
X8105896Y-15724460D01*
X8105896Y-15724460D02*
X8115420Y-15714936D01*
X8115420Y-15714936D02*
X8124944Y-15695888D01*
X8124944Y-15695888D02*
X8124944Y-15648269D01*
X8124944Y-15648269D02*
X8115420Y-15629222D01*
X8115420Y-15629222D02*
X8105896Y-15619698D01*
X8105896Y-15619698D02*
X8086848Y-15610174D01*
X8086848Y-15610174D02*
X8048753Y-15610174D01*
X8048753Y-15610174D02*
X8029706Y-15619698D01*
X8029706Y-15619698D02*
X8020182Y-15629222D01*
X8020182Y-15629222D02*
X8010658Y-15648269D01*
X8201134Y-15533984D02*
X8201134Y-15572079D01*
X8277325Y-15533984D02*
X8277325Y-15572079D01*
X8572563Y-15810174D02*
X8563039Y-15800650D01*
X8563039Y-15800650D02*
X8543991Y-15772079D01*
X8543991Y-15772079D02*
X8534468Y-15753031D01*
X8534468Y-15753031D02*
X8524944Y-15724460D01*
X8524944Y-15724460D02*
X8515420Y-15676841D01*
X8515420Y-15676841D02*
X8515420Y-15638746D01*
X8515420Y-15638746D02*
X8524944Y-15591127D01*
X8524944Y-15591127D02*
X8534468Y-15562555D01*
X8534468Y-15562555D02*
X8543991Y-15543508D01*
X8543991Y-15543508D02*
X8563039Y-15514936D01*
X8563039Y-15514936D02*
X8572563Y-15505412D01*
X8629706Y-15533984D02*
X8753515Y-15533984D01*
X8753515Y-15533984D02*
X8686849Y-15610174D01*
X8686849Y-15610174D02*
X8715420Y-15610174D01*
X8715420Y-15610174D02*
X8734468Y-15619698D01*
X8734468Y-15619698D02*
X8743991Y-15629222D01*
X8743991Y-15629222D02*
X8753515Y-15648269D01*
X8753515Y-15648269D02*
X8753515Y-15695888D01*
X8753515Y-15695888D02*
X8743991Y-15714936D01*
X8743991Y-15714936D02*
X8734468Y-15724460D01*
X8734468Y-15724460D02*
X8715420Y-15733984D01*
X8715420Y-15733984D02*
X8658277Y-15733984D01*
X8658277Y-15733984D02*
X8639230Y-15724460D01*
X8639230Y-15724460D02*
X8629706Y-15714936D01*
X8991611Y-15733984D02*
X8991611Y-15533984D01*
X9077325Y-15733984D02*
X9077325Y-15629222D01*
X9077325Y-15629222D02*
X9067801Y-15610174D01*
X9067801Y-15610174D02*
X9048753Y-15600650D01*
X9048753Y-15600650D02*
X9020182Y-15600650D01*
X9020182Y-15600650D02*
X9001134Y-15610174D01*
X9001134Y-15610174D02*
X8991611Y-15619698D01*
X9201134Y-15733984D02*
X9182087Y-15724460D01*
X9182087Y-15724460D02*
X9172563Y-15714936D01*
X9172563Y-15714936D02*
X9163039Y-15695888D01*
X9163039Y-15695888D02*
X9163039Y-15638746D01*
X9163039Y-15638746D02*
X9172563Y-15619698D01*
X9172563Y-15619698D02*
X9182087Y-15610174D01*
X9182087Y-15610174D02*
X9201134Y-15600650D01*
X9201134Y-15600650D02*
X9229706Y-15600650D01*
X9229706Y-15600650D02*
X9248753Y-15610174D01*
X9248753Y-15610174D02*
X9258277Y-15619698D01*
X9258277Y-15619698D02*
X9267801Y-15638746D01*
X9267801Y-15638746D02*
X9267801Y-15695888D01*
X9267801Y-15695888D02*
X9258277Y-15714936D01*
X9258277Y-15714936D02*
X9248753Y-15724460D01*
X9248753Y-15724460D02*
X9229706Y-15733984D01*
X9229706Y-15733984D02*
X9201134Y-15733984D01*
X9382087Y-15733984D02*
X9363039Y-15724460D01*
X9363039Y-15724460D02*
X9353515Y-15705412D01*
X9353515Y-15705412D02*
X9353515Y-15533984D01*
X9534468Y-15724460D02*
X9515420Y-15733984D01*
X9515420Y-15733984D02*
X9477325Y-15733984D01*
X9477325Y-15733984D02*
X9458277Y-15724460D01*
X9458277Y-15724460D02*
X9448753Y-15705412D01*
X9448753Y-15705412D02*
X9448753Y-15629222D01*
X9448753Y-15629222D02*
X9458277Y-15610174D01*
X9458277Y-15610174D02*
X9477325Y-15600650D01*
X9477325Y-15600650D02*
X9515420Y-15600650D01*
X9515420Y-15600650D02*
X9534468Y-15610174D01*
X9534468Y-15610174D02*
X9543992Y-15629222D01*
X9543992Y-15629222D02*
X9543992Y-15648269D01*
X9543992Y-15648269D02*
X9448753Y-15667317D01*
X9620182Y-15724460D02*
X9639230Y-15733984D01*
X9639230Y-15733984D02*
X9677325Y-15733984D01*
X9677325Y-15733984D02*
X9696373Y-15724460D01*
X9696373Y-15724460D02*
X9705896Y-15705412D01*
X9705896Y-15705412D02*
X9705896Y-15695888D01*
X9705896Y-15695888D02*
X9696373Y-15676841D01*
X9696373Y-15676841D02*
X9677325Y-15667317D01*
X9677325Y-15667317D02*
X9648753Y-15667317D01*
X9648753Y-15667317D02*
X9629706Y-15657793D01*
X9629706Y-15657793D02*
X9620182Y-15638746D01*
X9620182Y-15638746D02*
X9620182Y-15629222D01*
X9620182Y-15629222D02*
X9629706Y-15610174D01*
X9629706Y-15610174D02*
X9648753Y-15600650D01*
X9648753Y-15600650D02*
X9677325Y-15600650D01*
X9677325Y-15600650D02*
X9696373Y-15610174D01*
X9772563Y-15810174D02*
X9782087Y-15800650D01*
X9782087Y-15800650D02*
X9801134Y-15772079D01*
X9801134Y-15772079D02*
X9810658Y-15753031D01*
X9810658Y-15753031D02*
X9820182Y-15724460D01*
X9820182Y-15724460D02*
X9829706Y-15676841D01*
X9829706Y-15676841D02*
X9829706Y-15638746D01*
X9829706Y-15638746D02*
X9820182Y-15591127D01*
X9820182Y-15591127D02*
X9810658Y-15562555D01*
X9810658Y-15562555D02*
X9801134Y-15543508D01*
X9801134Y-15543508D02*
X9782087Y-15514936D01*
X9782087Y-15514936D02*
X9772563Y-15505412D01*
X10134468Y-15810174D02*
X10124944Y-15800650D01*
X10124944Y-15800650D02*
X10105896Y-15772079D01*
X10105896Y-15772079D02*
X10096373Y-15753031D01*
X10096373Y-15753031D02*
X10086849Y-15724460D01*
X10086849Y-15724460D02*
X10077325Y-15676841D01*
X10077325Y-15676841D02*
X10077325Y-15638746D01*
X10077325Y-15638746D02*
X10086849Y-15591127D01*
X10086849Y-15591127D02*
X10096373Y-15562555D01*
X10096373Y-15562555D02*
X10105896Y-15543508D01*
X10105896Y-15543508D02*
X10124944Y-15514936D01*
X10124944Y-15514936D02*
X10134468Y-15505412D01*
X10210658Y-15600650D02*
X10210658Y-15733984D01*
X10210658Y-15619698D02*
X10220182Y-15610174D01*
X10220182Y-15610174D02*
X10239230Y-15600650D01*
X10239230Y-15600650D02*
X10267801Y-15600650D01*
X10267801Y-15600650D02*
X10286849Y-15610174D01*
X10286849Y-15610174D02*
X10296373Y-15629222D01*
X10296373Y-15629222D02*
X10296373Y-15733984D01*
X10420182Y-15733984D02*
X10401134Y-15724460D01*
X10401134Y-15724460D02*
X10391611Y-15714936D01*
X10391611Y-15714936D02*
X10382087Y-15695888D01*
X10382087Y-15695888D02*
X10382087Y-15638746D01*
X10382087Y-15638746D02*
X10391611Y-15619698D01*
X10391611Y-15619698D02*
X10401134Y-15610174D01*
X10401134Y-15610174D02*
X10420182Y-15600650D01*
X10420182Y-15600650D02*
X10448754Y-15600650D01*
X10448754Y-15600650D02*
X10467801Y-15610174D01*
X10467801Y-15610174D02*
X10477325Y-15619698D01*
X10477325Y-15619698D02*
X10486849Y-15638746D01*
X10486849Y-15638746D02*
X10486849Y-15695888D01*
X10486849Y-15695888D02*
X10477325Y-15714936D01*
X10477325Y-15714936D02*
X10467801Y-15724460D01*
X10467801Y-15724460D02*
X10448754Y-15733984D01*
X10448754Y-15733984D02*
X10420182Y-15733984D01*
X10543992Y-15600650D02*
X10620182Y-15600650D01*
X10572563Y-15533984D02*
X10572563Y-15705412D01*
X10572563Y-15705412D02*
X10582087Y-15724460D01*
X10582087Y-15724460D02*
X10601134Y-15733984D01*
X10601134Y-15733984D02*
X10620182Y-15733984D01*
X10839230Y-15600650D02*
X10839230Y-15800650D01*
X10839230Y-15610174D02*
X10858277Y-15600650D01*
X10858277Y-15600650D02*
X10896373Y-15600650D01*
X10896373Y-15600650D02*
X10915420Y-15610174D01*
X10915420Y-15610174D02*
X10924944Y-15619698D01*
X10924944Y-15619698D02*
X10934468Y-15638746D01*
X10934468Y-15638746D02*
X10934468Y-15695888D01*
X10934468Y-15695888D02*
X10924944Y-15714936D01*
X10924944Y-15714936D02*
X10915420Y-15724460D01*
X10915420Y-15724460D02*
X10896373Y-15733984D01*
X10896373Y-15733984D02*
X10858277Y-15733984D01*
X10858277Y-15733984D02*
X10839230Y-15724460D01*
X11048754Y-15733984D02*
X11029706Y-15724460D01*
X11029706Y-15724460D02*
X11020182Y-15705412D01*
X11020182Y-15705412D02*
X11020182Y-15533984D01*
X11210658Y-15733984D02*
X11210658Y-15629222D01*
X11210658Y-15629222D02*
X11201134Y-15610174D01*
X11201134Y-15610174D02*
X11182087Y-15600650D01*
X11182087Y-15600650D02*
X11143992Y-15600650D01*
X11143992Y-15600650D02*
X11124944Y-15610174D01*
X11210658Y-15724460D02*
X11191611Y-15733984D01*
X11191611Y-15733984D02*
X11143992Y-15733984D01*
X11143992Y-15733984D02*
X11124944Y-15724460D01*
X11124944Y-15724460D02*
X11115420Y-15705412D01*
X11115420Y-15705412D02*
X11115420Y-15686365D01*
X11115420Y-15686365D02*
X11124944Y-15667317D01*
X11124944Y-15667317D02*
X11143992Y-15657793D01*
X11143992Y-15657793D02*
X11191611Y-15657793D01*
X11191611Y-15657793D02*
X11210658Y-15648269D01*
X11277325Y-15600650D02*
X11353515Y-15600650D01*
X11305896Y-15533984D02*
X11305896Y-15705412D01*
X11305896Y-15705412D02*
X11315420Y-15724460D01*
X11315420Y-15724460D02*
X11334468Y-15733984D01*
X11334468Y-15733984D02*
X11353515Y-15733984D01*
X11496373Y-15724460D02*
X11477325Y-15733984D01*
X11477325Y-15733984D02*
X11439230Y-15733984D01*
X11439230Y-15733984D02*
X11420182Y-15724460D01*
X11420182Y-15724460D02*
X11410658Y-15705412D01*
X11410658Y-15705412D02*
X11410658Y-15629222D01*
X11410658Y-15629222D02*
X11420182Y-15610174D01*
X11420182Y-15610174D02*
X11439230Y-15600650D01*
X11439230Y-15600650D02*
X11477325Y-15600650D01*
X11477325Y-15600650D02*
X11496373Y-15610174D01*
X11496373Y-15610174D02*
X11505896Y-15629222D01*
X11505896Y-15629222D02*
X11505896Y-15648269D01*
X11505896Y-15648269D02*
X11410658Y-15667317D01*
X11677325Y-15733984D02*
X11677325Y-15533984D01*
X11677325Y-15724460D02*
X11658277Y-15733984D01*
X11658277Y-15733984D02*
X11620182Y-15733984D01*
X11620182Y-15733984D02*
X11601134Y-15724460D01*
X11601134Y-15724460D02*
X11591611Y-15714936D01*
X11591611Y-15714936D02*
X11582087Y-15695888D01*
X11582087Y-15695888D02*
X11582087Y-15638746D01*
X11582087Y-15638746D02*
X11591611Y-15619698D01*
X11591611Y-15619698D02*
X11601134Y-15610174D01*
X11601134Y-15610174D02*
X11620182Y-15600650D01*
X11620182Y-15600650D02*
X11658277Y-15600650D01*
X11658277Y-15600650D02*
X11677325Y-15610174D01*
X11753515Y-15810174D02*
X11763039Y-15800650D01*
X11763039Y-15800650D02*
X11782087Y-15772079D01*
X11782087Y-15772079D02*
X11791611Y-15753031D01*
X11791611Y-15753031D02*
X11801134Y-15724460D01*
X11801134Y-15724460D02*
X11810658Y-15676841D01*
X11810658Y-15676841D02*
X11810658Y-15638746D01*
X11810658Y-15638746D02*
X11801134Y-15591127D01*
X11801134Y-15591127D02*
X11791611Y-15562555D01*
X11791611Y-15562555D02*
X11782087Y-15543508D01*
X11782087Y-15543508D02*
X11763039Y-15514936D01*
X11763039Y-15514936D02*
X11753515Y-15505412D01*
M02*
